<svg id="OBJECTS" xmlns="http://www.w3.org/2000/svg" xmlns:xlink="http://www.w3.org/1999/xlink" viewBox="0 0 466.42 406.52"><defs><style>.cls-1{fill:none;}.cls-2{fill:#b2d0ff;}.cls-3{fill:#fff;}.cls-4{fill:#8ca7cf;}.cls-5{fill:#92bdff;}.cls-6{fill:#d9d9d9;}.cls-7{fill:#7db8d1;}.cls-8{fill:#5598b5;}.cls-9{fill:#a6e3df;}.cls-10{fill:#7fd4c6;}.cls-11{fill:#4b968b;}.cls-12{fill:#405296;}.cls-13{fill:#2d3969;}.cls-14{clip-path:url(#clip-path);}.cls-15{fill:#9c6c6c;}.cls-16{fill:#deebff;}.cls-17{fill:#b5b5b5;}.cls-18{fill:#2e2e2e;}.cls-19{fill:#1f0b1b;}.cls-20{fill:#f8c0be;}.cls-21{fill:#fe8a90;}.cls-22{fill:#f0f0f0;}.cls-23{fill:#85edd5;}.cls-24{fill:#5a71ce;}.cls-25{fill:#1b2340;}.cls-26{fill:#593434;}.cls-27{fill:#404040;}.cls-28{fill:#5c2051;}.cls-29{fill:#8092e3;}.cls-30{fill:#1f1f1f;}.cls-31{fill:#27335c;}.cls-32{fill:#1c2542;}.cls-33{fill:#d48f28;}.cls-34{fill:#b57a22;}.cls-35{fill:#e3a344;}.cls-36{fill:#f8d4be;}.cls-37{fill:#cc976f;}.cls-38{fill:#f79eb0;}.cls-39{fill:#d46c81;}.cls-40{fill:#495da8;}</style><clipPath id="clip-path" transform="translate(-21.82 -42.3)"><path class="cls-1" d="M231,192.31s.91,7.18,1.11,8.18,4.13,5.67,6.12,6.58a7.17,7.17,0,0,0,7-.67c2.05-1.58,4.1-2.81,5.26-6.19s.67-11.72.38-14.36a23.22,23.22,0,0,0-1.86-6s-15.41.1-16.66.68S230.6,187.57,231,192.31Z"/></clipPath></defs><title>3680924</title><path class="cls-2" d="M89.69,152.43S130.61,48.59,212.35,63.68,449.72,6.09,477.83,67.1,468.23,246,468.23,246s-10.7,186.6-86.93,194.61S7.66,400.28,26.72,292.53,89.69,152.43,89.69,152.43Z" transform="translate(-21.82 -42.3)"/><path class="cls-3" d="M94.86,280.53a193.5,193.5,0,0,1-19.48-28h0l-.07-.13c1.6-1.29,7.69-6.9,3.73-14.72l-.25-.49-.47.29a10.91,10.91,0,0,0-5.13,11.18q-2.1-3.84-4.15-8-1-2-2-4.14l.06,0-.06-.14c1.74-1.11,8.41-6,5.32-14.22l-.19-.52-.49.24a11,11,0,0,0-6.32,10.86c-1.58-3.69-3.1-7.6-4.49-11.7,2-.9,9.12-4.81,7.25-13.3l-.12-.54-.52.17c-5.93,1.92-7.48,6.65-7.81,10-1.19-3.83-2.24-7.82-3.11-11.91,2-.75,9.43-4.15,8.17-12.75l-.08-.54-.53.13a10.87,10.87,0,0,0-8.4,8.86,112.55,112.55,0,0,1-1.48-12.18c2.14-.39,10-2.41,10.3-11.07l0-.55-.55,0a10.93,10.93,0,0,0-10,7.52,96.41,96.41,0,0,1,.88-16c2,0,10.29-.76,11.92-9.39l.11-.54-.55-.05a10.83,10.83,0,0,0-10.72,5.47,85.9,85.9,0,0,1,2.52-9.89c1.19-.81,8.47-6.2,4.73-14.66l-.22-.5-.48.27c-8.08,4.55-5.44,13.28-5,14.59a88.8,88.8,0,0,0-2.56,10.09,10.85,10.85,0,0,0-8.29-8.82l-.54-.13-.08.54c-1.35,8.67,6.17,12.11,8.1,12.85l0,.14H54a95.54,95.54,0,0,0-.89,15A10.76,10.76,0,0,0,43.75,177l-.55,0v.55c0,8.77,7.94,11,10,11.47v.15l.13,0A117.92,117.92,0,0,0,54.72,201a10.83,10.83,0,0,0-10.6-5.45l-.55,0,.1.55c1.54,8.63,9.79,9.44,11.85,9.5v.15l.11,0c.77,3.58,1.67,7.08,2.69,10.47A10.72,10.72,0,0,0,47.76,212l-.54.08.13.54c2,7.9,9.3,8.64,12,8.64h.53l0,.15.1,0c1.27,3.72,2.63,7.3,4.06,10.69a10.71,10.71,0,0,0-11.21-2.77l-.53.16.21.51c2.45,5.94,7.52,7,10.86,7a15.4,15.4,0,0,0,2.72-.24q1,2.25,2.06,4.38c1.28,2.61,2.59,5.12,3.91,7.54A10.81,10.81,0,0,0,60.36,247l-.5.22.26.48a10.74,10.74,0,0,0,9.93,5.87,15.33,15.33,0,0,0,4.33-.63l.06.14,0,0a194,194,0,0,0,19.62,28.2.52.52,0,0,0,.38.17.46.46,0,0,0,.33-.13A.48.48,0,0,0,94.86,280.53Zm-27.57-72c1.28,7.28-4.67,10.65-6.62,11.55C60.46,217.91,60.36,211.06,67.29,208.49Zm-3.44-15.13c.76,7.35-5.42,10.29-7.42,11C56.37,202.27,56.76,195.44,63.85,193.36Zm-.3-15c-.57,7.37-7.17,9.16-9.28,9.55C54.62,185.82,56.29,179.15,63.55,178.37ZM65.2,159.8h.58c-1.68,7.2-8.48,8-10.62,8C55.78,165.85,58.26,159.8,65.2,159.8ZM71.66,223c2.29,7-3.11,11.21-4.91,12.37C66.27,233.32,65.25,226.52,71.66,223ZM62.28,140.7c2.69,6.88-2.48,11.37-4.21,12.63C57.44,151.29,56,144.6,62.28,140.7ZM46.72,156.52c7.08,2.15,7.4,9,7.33,11.13C52.05,166.87,45.9,163.87,46.72,156.52ZM44.21,178c7.31,1.05,8.68,7.75,8.93,9.88C51.06,187.41,44.52,185.31,44.21,178Zm.55,18.45c7.37-.27,9.92,6.07,10.55,8.12C53.18,204.48,46.37,203.58,44.76,196.46ZM48.47,213c7.35-.81,10.34,5.35,11.1,7.35C57.43,220.37,50.6,220,48.47,213Zm5.19,17.16c6.9-1.78,10.71,3.43,11.9,5.48a2.14,2.14,0,0,1,.1.22C63.54,236.16,56.73,236.7,53.66,230.11Zm24.73,8.53c3,6.72-1.86,11.48-3.52,12.84C74.16,249.47,72.41,242.82,78.39,238.64Zm-17.11,9c6.91-2.61,11.35,2.61,12.59,4.35C71.82,252.61,65.11,254,61.28,247.66Z" transform="translate(-21.82 -42.3)"/><path class="cls-3" d="M121.54,441.56s-9.83-41.77,13-53.64,48.66-1.82,56.14,9.42c0,0-4.07-46.11,42.48-41.44s25.22,86.22,25.22,86.22Z" transform="translate(-21.82 -42.3)"/><path class="cls-4" d="M187.09,442.6a97.05,97.05,0,0,1-9.58-7.43c0-1.19.08-5.94,0-11.62.41-.56,7.29-10.12,8.33-15.8a.5.5,0,0,0-.41-.58.51.51,0,0,0-.58.4c-.8,4.4-5.5,11.56-7.38,14.3-.2-7-.7-15-1.89-19.37a.5.5,0,0,0-1,.26c2.05,7.53,2,26.7,2,31.54-8.28-7.39-19-19.18-22.73-33.22a.5.5,0,0,0-1,.26c2.55,9.62,8.33,18.19,14.39,25.05a89.71,89.71,0,0,1-20.83-7.72l-2.16-8.93a.5.5,0,0,0-1,.23l1.94,8a41,41,0,0,1-11.52-9.25.5.5,0,1,0-.77.63,42.61,42.61,0,0,0,12.71,10,.48.48,0,0,0,.23.13,91.12,91.12,0,0,0,22.52,8.16,106.44,106.44,0,0,0,8.22,8,.5.5,0,0,0,.23.2c.53.46,1.05.91,1.56,1.33-4.58-.3-19-1.49-31.49-5l-5.83-8.09a.5.5,0,0,0-.82.58l5.09,7.06a55.29,55.29,0,0,1-10.25-4.05.5.5,0,0,0-.68.2.5.5,0,0,0,.21.68,59.18,59.18,0,0,0,11.75,4.51l.13,0c14.51,4.06,31.56,5.05,33.19,5.13,4,3.25,6.79,5.08,6.87,5.14a.56.56,0,0,0,.27.08.48.48,0,0,0,.42-.23A.49.49,0,0,0,187.09,442.6Z" transform="translate(-21.82 -42.3)"/><path class="cls-4" d="M248.05,417.75a.5.5,0,0,0-.7.08c-2,2.54-5.41,5-9.2,7.28L241.76,413a.5.5,0,0,0-1-.29l-3.91,13.16a132.76,132.76,0,0,1-16.38,7.61c.21-1.08.43-2.23.65-3.44a.19.19,0,0,0,0-.07c.69-3.65,1.45-7.86,2.2-12.34,1.59-1.28,17.42-14.34,23.67-30.53a.51.51,0,0,0-.28-.65.5.5,0,0,0-.65.29c-5.54,14.34-18.75,26.22-22.49,29.38.62-3.76,1.24-7.69,1.79-11.62a.39.39,0,0,0,0-.21c1.62-11.52,2.76-23.13,2.28-30.95a.5.5,0,0,0-1,.06c.46,7.56-.6,18.72-2.15,29.9-2.59-2.48-11.6-11.87-13.05-23.54a.5.5,0,0,0-.56-.43.49.49,0,0,0-.43.55,36.58,36.58,0,0,0,6.1,15.39,18.27,18.27,0,0,1-9.71-6.09.5.5,0,1,0-.77.64,19,19,0,0,0,11.29,6.64,51.4,51.4,0,0,0,7,8.05c-1.25,8.88-2.79,17.69-4.09,24.63a65.93,65.93,0,0,1-10.15-7.85l-1.23-11.46a.5.5,0,0,0-.55-.44.5.5,0,0,0-.44.55L209,420.17A43.1,43.1,0,0,1,200,407.46a.5.5,0,0,0-.92.41,45.41,45.41,0,0,0,10.25,13.93.73.73,0,0,0,.16.14,65.78,65.78,0,0,0,10.68,8.22c-1.42,7.51-2.51,12.6-2.54,12.75a.5.5,0,0,0,.38.6h.11a.5.5,0,0,0,.49-.4c0-.12.72-3.38,1.72-8.52,2.53-.93,21.69-8.24,27.86-16.15A.5.5,0,0,0,248.05,417.75Z" transform="translate(-21.82 -42.3)"/><path class="cls-3" d="M378.33,434.37s-1.55-81.54,13.93-112,43.36-50.06,54.71-37.16,1,44.39-9.29,66.58-26.32,90.33-26.32,90.33Z" transform="translate(-21.82 -42.3)"/><path class="cls-4" d="M439.57,319.26a.48.48,0,0,0-.63-.3l-19.05,6.69a133,133,0,0,1,10.47-19.51.5.5,0,0,0-.84-.56A134.8,134.8,0,0,0,419,325.19l-6-17a.48.48,0,0,0-.63-.3.49.49,0,0,0-.31.64l6.37,18c-3.06,7-5.87,14.52-8.45,22.24l-7.79-16.27a.5.5,0,0,0-.91.43l8.24,17.21c-2.31,7-4.43,14.2-6.35,21.25l-7.34-16.33a.5.5,0,0,0-.91.41l7.83,17.44c-2,7.53-3.82,14.9-5.39,21.82l-5.87-16.56a.51.51,0,0,0-.64-.31.49.49,0,0,0-.3.64l6.39,18.06c-1.45,6.46-2.7,12.49-3.74,17.81l-5.87-16.56a.49.49,0,0,0-.64-.3.48.48,0,0,0-.3.63l6.42,18.13v0c-2.37,12.26-3.58,20.33-3.62,20.6a.51.51,0,0,0,.42.57h.07a.5.5,0,0,0,.5-.42c0-.27,1.25-8.34,3.62-20.6l19.79-6.95a.51.51,0,0,0,.31-.64.49.49,0,0,0-.64-.3L394,415.3c1.07-5.48,2.36-11.74,3.88-18.49l19.85-7a.5.5,0,1,0-.33-.95l-19.26,6.77c1.61-7.11,3.46-14.74,5.55-22.52L423,364.55a.51.51,0,0,0,.26-.66.51.51,0,0,0-.67-.25l-18.5,8.25c1.94-7.14,4.08-14.4,6.43-21.51l19.06-9.06a.49.49,0,0,0,.23-.66.5.5,0,0,0-.66-.24l-18.2,8.65c2.58-7.7,5.38-15.2,8.43-22.17l19.93-7A.49.49,0,0,0,439.57,319.26Z" transform="translate(-21.82 -42.3)"/><path class="cls-3" d="M399,431.61s25.76-53,43.57-48.33,7.48,25.55-1.3,36.64-31.61,23.49-31.61,23.49L396,440.13Z" transform="translate(-21.82 -42.3)"/><path class="cls-4" d="M443.46,405.55a.49.49,0,0,0-.6-.37l-10.1,2.34a88,88,0,0,0,7.29-11.31.5.5,0,0,0-.22-.67.51.51,0,0,0-.68.22A84.24,84.24,0,0,1,432,406.92l-.88-11a.5.5,0,1,0-1,.08l1,12.13c-2.52,3.39-5.33,7-8.14,10.44V408.31a.5.5,0,0,0-.5-.5.5.5,0,0,0-.5.5v11.52c-3.06,3.74-6.07,7.32-8.7,10.4l.2-10.2a.52.52,0,0,0-.49-.51.54.54,0,0,0-.51.49l-.23,11.41c-4.23,4.91-7.24,8.27-7.33,8.37a.5.5,0,0,0,0,.71.51.51,0,0,0,.33.13.5.5,0,0,0,.37-.17c.09-.1,3.1-3.45,7.33-8.36l10.34-.87a.5.5,0,0,0-.08-1l-9.33.78c2.65-3.1,5.71-6.72,8.81-10.52l12.25-1.94a.51.51,0,0,0,.42-.57.51.51,0,0,0-.58-.42l-11.15,1.77c2.85-3.51,5.69-7.13,8.24-10.57l11.24-2.61A.5.5,0,0,0,443.46,405.55Z" transform="translate(-21.82 -42.3)"/><path class="cls-3" d="M72.19,438.77S57,387.39,41.55,366.24s-15.87-53.86,9.29-55.7S86.63,346,93.51,373.42s6.1,65.35,6.1,65.35Z" transform="translate(-21.82 -42.3)"/><path class="cls-4" d="M93,408.34a.51.51,0,0,0-.69.15l-7.9,12.3c-1.65-7.08-3.35-13.71-5-19.92L88.07,385a.5.5,0,0,0-.88-.48l-8.2,15c-2-7.36-4.1-14.1-6.11-20.25l7.52-20.83a.5.5,0,1,0-.94-.34L72.37,377.7c-3.19-9.58-6.27-17.69-9.06-24.37l5-17.79a.5.5,0,0,0-.34-.62.52.52,0,0,0-.62.35l-4.65,16.58c-6.59-15.58-11.33-23-11.43-23.1a.5.5,0,1,0-.83.55c.1.15,4.86,7.56,11.47,23.24L46,348.09a.5.5,0,0,0-.62.34.51.51,0,0,0,.35.62l16.71,4.66c2.79,6.7,5.89,14.84,9.09,24.49l-16.55-8.13a.49.49,0,0,0-.66.23.5.5,0,0,0,.22.67l17.43,8.56Q75,388.83,78.09,400l-14.23-5.42a.49.49,0,0,0-.64.29.5.5,0,0,0,.29.65l14.9,5.67q2.58,9.38,5.08,20.07l-14.06-5.77a.5.5,0,1,0-.38.93l14.71,6q1.72,7.47,3.38,15.58a.5.5,0,0,0,.49.4h.1a.5.5,0,0,0,.39-.59q-1.65-8.16-3.39-15.65L93.16,409A.51.51,0,0,0,93,408.34Z" transform="translate(-21.82 -42.3)"/><path class="cls-3" d="M79.31,438.77H56.65s-43.46-46.68-33.29-67.36,27.1-20.2,36-1.39S79.31,438.77,79.31,438.77Z" transform="translate(-21.82 -42.3)"/><path class="cls-4" d="M70,423.1a.51.51,0,0,0-.65.28L66,431.68c-1.39-3.94-2.87-7.9-4.39-11.8l4.84-11.53a.51.51,0,0,0-.27-.65.5.5,0,0,0-.66.27l-4.44,10.57c-1.76-4.49-3.58-8.89-5.37-13.08L61,391.62a.5.5,0,0,0-.29-.64.5.5,0,0,0-.65.29l-4.86,12.86c-2.44-5.69-4.81-11-6.91-15.52l5.09-12.76a.5.5,0,0,0-.28-.65.5.5,0,0,0-.65.28l-4.73,11.88c-4.21-9.07-7.2-15-7.28-15.15a.5.5,0,0,0-.67-.22.51.51,0,0,0-.22.67c.07.15,3.11,6.15,7.35,15.31l-13.64-2.22a.5.5,0,0,0-.58.41.51.51,0,0,0,.42.58l14.3,2.33c2.12,4.6,4.52,9.93,7,15.69l-16.58-3.52a.5.5,0,1,0-.21,1l17.27,3.67c1.81,4.25,3.65,8.71,5.44,13.27L46.44,416a.5.5,0,0,0-.6.37.52.52,0,0,0,.37.61l14.53,3.36c1.54,4,3,8,4.45,12l-9.92-3.65a.51.51,0,0,0-.64.3.5.5,0,0,0,.3.64l10.68,3.93c.6,1.72,1.18,3.44,1.74,5.14a.5.5,0,0,0,.47.35.45.45,0,0,0,.16,0,.5.5,0,0,0,.32-.63c-.56-1.72-1.15-3.46-1.76-5.2l3.74-9.36A.51.51,0,0,0,70,423.1Z" transform="translate(-21.82 -42.3)"/><path class="cls-3" d="M286.71,442.12s-13.28-75.36,8.52-90.84,42-3.06,44.13,18.74-9,72.1-9,72.1Z" transform="translate(-21.82 -42.3)"/><path class="cls-4" d="M299.33,409.13l5.17-26.79a.51.51,0,0,0-.4-.59.5.5,0,0,0-.58.4l-4.71,24.38c-1.72-8.78-3.14-17.22-3.21-21.77a.46.46,0,0,0-.51-.49.5.5,0,0,0-.49.51c.13,8.31,4.49,28.55,7.44,41.79-3.13-2.29-12.18-9.35-12.64-14.56a.5.5,0,0,0-.54-.46.51.51,0,0,0-.46.54c.57,6.43,12.39,14.85,14,16,.19.85.38,1.68.55,2.46.85,3.81,1.53,6.83,1.56,7.27a.52.52,0,0,0,.35.52l.15,0a.5.5,0,0,0,.48-.35c.08-.24.09-.28-1.56-7.68C302.7,425,300.93,417.05,299.33,409.13Z" transform="translate(-21.82 -42.3)"/><path class="cls-4" d="M331.74,400.25a.48.48,0,0,0-.64.28c-1.6,4.12-10.18,9.2-13.42,11,2.3-5.43,4.76-11.61,6.88-17.82,0,0,0,0,0,0a141.57,141.57,0,0,0,4.13-14.21.5.5,0,0,0-.38-.6.49.49,0,0,0-.59.38c-.92,4-2.17,8.33-3.61,12.65-.89-2.88-2.76-9.52-2.85-14.87a.5.5,0,0,0-.51-.49.49.49,0,0,0-.49.51c.12,6.71,2.85,15.1,3.31,16.44a326.45,326.45,0,0,1-13.83,33.16c1-18.61,3.32-54.25,6.25-69.38a.48.48,0,0,0-.39-.58.5.5,0,0,0-.59.39c-1,5.16-1.92,12.69-2.75,21.12C311,376,307.84,370,306.89,364a.51.51,0,0,0-.58-.41.5.5,0,0,0-.41.57c1.23,7.75,5.87,15.17,6.07,15.48a.57.57,0,0,0,.16.15c-1.64,17.19-2.87,37.64-3.5,49.27v0c-.3,5.61-.47,9.17-.48,9.32a.5.5,0,0,0,.48.52h0a.5.5,0,0,0,.5-.48c0-.14.17-3.66.48-9.21.41-.84,3.64-7.38,7.43-16.19,1.47-.78,13-6.95,15-12.13A.49.49,0,0,0,331.74,400.25Z" transform="translate(-21.82 -42.3)"/><path class="cls-3" d="M423.36,183.39A60.39,60.39,0,0,0,425,172.88h.14l0-.15c2-.49,9.9-3,9.63-11.75v-.55l-.55.07a10.79,10.79,0,0,0-9.2,7.39,38.16,38.16,0,0,0-1.34-8.2c.54-1.29,3.7-9.83-4.08-14.86l-.46-.3-.26.49c-4.25,8.22,2.71,14.06,3.83,14.93a36.91,36.91,0,0,1,1.35,8.6,10.89,10.89,0,0,0-10.12-7.1l-.55,0,0,.55c.54,8.65,8.45,10.45,10.61,10.79A59.68,59.68,0,0,1,422.17,184a10.91,10.91,0,0,0-8-9.6l-.52-.16-.11.54c-1.72,8.54,5.53,12.32,7.49,13.17a109.17,109.17,0,0,1-4.34,11.63c0-3.33-1.16-8.45-7.19-10.82l-.52-.2-.15.53c-2.38,8.35,4.51,12.69,6.41,13.72-1.5,3.25-3.14,6.49-4.84,9.7.35-3.3-.12-8.68-6-11.74l-.49-.25-.21.51c-3.27,8.13,3.28,13.19,5,14.34l-.06.14.13,0c-1.91,3.47-3.88,6.89-5.84,10.22.36-3.31-.15-8.54-5.88-11.61l-.48-.26-.22.51c-3.35,8.05,3.05,13.18,4.79,14.39l-2.67,4.47-3,5a10.92,10.92,0,0,0-5.07-11.39l-.46-.29-.25.49c-4,7.81,2.08,13.43,3.68,14.73l-.07.13h0c-4.16,7.12-7.72,13.72-9.62,19.19-8.37,24.08,7.26,79.85,7.42,80.41a.5.5,0,0,0,.48.37l.14,0a.5.5,0,0,0,.34-.62c-.16-.56-15.7-56-7.43-79.81,1.88-5.41,5.42-12,9.55-19.06l.05,0,.06-.14a15.37,15.37,0,0,0,4.37.65,10.73,10.73,0,0,0,9.9-5.84l.27-.48-.51-.22a10.73,10.73,0,0,0-11.49,1.52c.8-1.36,1.62-2.72,2.44-4.1l2.67-4.47.08.05.06-.14a15.13,15.13,0,0,0,3.28.35A10.92,10.92,0,0,0,416,223l.23-.51-.53-.17a10.64,10.64,0,0,0-10.53,1.7q2.35-4,4.64-8.17a15.65,15.65,0,0,0,3,.29,11,11,0,0,0,10.66-6.77l.22-.5-.52-.17a10.62,10.62,0,0,0-10.53,1.86c1.24-2.41,2.44-4.84,3.57-7.28l.12,0,0-.14c.34,0,.84.07,1.46.07,3.16,0,9.31-.95,11.54-7.93l.17-.52-.54-.12a10.63,10.63,0,0,0-10.33,3c1.28-3.11,2.42-6.23,3.37-9.33l.1,0,0-.15h.27c2.43,0,10.14-.67,12.06-8.87l.13-.53-.55-.08A10.76,10.76,0,0,0,423.36,183.39Zm10.35-21.8c-.09,7.39-6.57,9.61-8.64,10.13C425.25,169.59,426.42,162.84,433.71,161.59ZM419.44,146c6,4.27,4.17,10.86,3.42,12.87C421.22,157.5,416.33,152.7,419.44,146Zm-5.05,16.49c7.36.57,9.16,7.16,9.55,9.27C421.84,171.42,415.17,169.75,414.39,162.49Zm-20.5,78.39c-1.66-1.35-6.57-6.13-3.49-12.85C396.45,232.28,394.63,238.88,393.89,240.88Zm13.59-3.78c-3.85,6.32-10.55,4.92-12.6,4.31C396.13,239.68,400.57,234.47,407.48,237.1Zm-5.91-9.21c-1.73-1.24-7-5.69-4.47-12.54C403.46,219.11,402.15,225.82,401.57,227.89Zm13.26-4.81c-3.34,6.58-10.11,5.72-12.21,5.27.07-.14.15-.27.23-.4C404.24,225.83,408.2,221.12,414.83,223.08Zm-5.74-8.63c-1.74-1.22-7-5.6-4.62-12.48C410.87,205.65,409.65,212.38,409.09,214.45Zm13.21-5c-3.19,6.49-9.75,5.88-12,5.45.25-.45.5-.9.74-1.36C412.79,211.25,416.49,207.84,422.3,209.47Zm-6.71-7.58c-1.88-1-7.62-4.75-5.9-11.94C416.45,193,415.93,199.78,415.59,201.89Zm12.62-6.34c-2.56,6.94-9.41,6.87-11.53,6.66C417.56,200.27,420.92,194.3,428.21,195.55ZM421.29,187c-2-.86-8-4.13-6.83-11.43C421.43,178,421.46,184.88,421.29,187Zm1.11.24c.75-2,3.68-8.21,11-7.56C431.37,186.8,424.52,187.29,422.4,187.25Z" transform="translate(-21.82 -42.3)"/><path class="cls-5" d="M455.4,443.61c0,2.88-92,5.21-205.4,5.21s-205.4-2.33-205.4-5.21,92-5.21,205.4-5.21S455.4,440.73,455.4,443.61Z" transform="translate(-21.82 -42.3)"/><path class="cls-3" d="M222.73,211l-1.35,17.83s-4.41,30.74-5,43.3a82.8,82.8,0,0,1-.92,8.47c-1.62,10.62-4.81,23.69-5.95,28.25-.27,1.06-.43,1.66-.43,1.66h-4.55l-.2-1.65h0L202,289.38s2-27.91,2.63-31.87,1.23-26.62,5.07-35.59C210.55,219.86,222.73,211,222.73,211Z" transform="translate(-21.82 -42.3)"/><path class="cls-6" d="M215.92,253.77l-.45,26.81c-2,13.09-6.38,29.91-6.38,29.91h-4.55s2.51-4.82,2.82-7.78,1.86-15.44,1.73-20.08.26-28.08.65-33.07,2.39-20.9,6.18-26.32S215.92,253.77,215.92,253.77Z" transform="translate(-21.82 -42.3)"/><path class="cls-7" d="M212.35,311.39l-.83,10-1,11.89s-2.88,1-3.93,0a11.37,11.37,0,0,1-1.64-2.63c-.42-.85-.85-1.79-1.21-2.7a11.26,11.26,0,0,1-1-3.7c.05-1,.55-4.84,1-8.2v0c.4-2.95.77-5.53.77-5.53l3.11-.44,4.51,1.28Z" transform="translate(-21.82 -42.3)"/><path class="cls-8" d="M212.16,311.33l-1.27,9s-2.38-7.94-2.88-8.26-3.47-1.54-3.47-1.54l3.11-.44Z" transform="translate(-21.82 -42.3)"/><path class="cls-8" d="M211.52,321.4l-1,11.89s-2.88,1-3.93,0a11.37,11.37,0,0,1-1.64-2.63,13.36,13.36,0,0,1,.1-7,39.48,39.48,0,0,0,.84-5.31,58.28,58.28,0,0,1,.31,5.83c-.13,1.15.19,3.71.65,4.15a12,12,0,0,0,1.4,1.1,4.34,4.34,0,0,0,1.41-2.12c.32-1.28,1.6-6.91,1.6-6.91Z" transform="translate(-21.82 -42.3)"/><path class="cls-9" d="M203.27,323.94l.48,4a11.26,11.26,0,0,1-1-3.7c.05-1,.55-4.84,1-8.2Z" transform="translate(-21.82 -42.3)"/><path class="cls-10" d="M209.52,308.83c-.27,1.06-.43,1.66-.43,1.66h-4.55l-.2-1.65h5.18Z" transform="translate(-21.82 -42.3)"/><path class="cls-11" d="M205.34,308.83c-.46,1-.8,1.66-.8,1.66h4.55s.16-.6.42-1.66Z" transform="translate(-21.82 -42.3)"/><path class="cls-12" d="M237.77,438.9c-.13,2.17-1.66,2.82-3.84,3s-10.25.5-15.24.5-19.45-.37-19.84-.89a6.35,6.35,0,0,1-.18-2.67c.1-1.45.46-3.05,1.2-3.6,1.41-1,8.59-2.56,10.18-3.53s7.49-8.76,7.62-10.68-3.2-35.76-3.2-35.76a42.46,42.46,0,0,0,4.48.58,93.73,93.73,0,0,0,17.6-.58s-.06,31.28.07,34.35S237.9,436.73,237.77,438.9Z" transform="translate(-21.82 -42.3)"/><path class="cls-13" d="M237.77,438.9c-.13,2.17-1.66,2.82-3.84,3s-10.25.5-15.24.5-19.45-.37-19.84-.89a6.35,6.35,0,0,1-.18-2.67,36.11,36.11,0,0,1,3.86,0c1.67.13,8.76.26,8.76.26a56.5,56.5,0,0,1,6.71-4.13c1.93-.77,3.21,1.81,5.66,2.45s5.42-1.93,6.45-3.87-1.67-3.87-2.32-5.16,3.36-3,4-4.11,1.55-6.07,1.42-9.42-.52-23.33-.52-23.33L223,389.38s-2.39-2.2-4.07-3.58a93.73,93.73,0,0,0,17.6-.58s-.06,31.28.07,34.35S237.9,436.73,237.77,438.9Z" transform="translate(-21.82 -42.3)"/><path class="cls-3" d="M238.38,381.3c.11.76-1.83,3.92-1.83,3.92l-10.18,3.18-11.9-3.18c-1.54-2.21-4.23-23.52-4.42-27.39s0-44.57,0-44.57h28.33l0,1.39.37,23.82S238.28,380.52,238.38,381.3Z" transform="translate(-21.82 -42.3)"/><path class="cls-6" d="M238.38,381.3c.11.76-1.83,3.92-1.83,3.92l-10.18,3.18s0-2.45,1-3.18a18.33,18.33,0,0,0,2.91-2.27c1.18-1.15,3.62-9.56,3.62-9.56l-1-20.13-1.15-23.84-1.44-6.89s-14.38-3.56-20.26-9.27l8.31.79s9.8,2.62,12.76,2.12c2.14-.36,5.57-1.12,7.28-1.52l.37,23.82S238.28,380.52,238.38,381.3Z" transform="translate(-21.82 -42.3)"/><path class="cls-3" d="M222.73,211s3.07-23.25,4-26.9,2.9-10,5.47-11.91c2.91-2.18,12.77-2.78,16.71-.48,3.45,2,5.38,11.22,6.34,20.16s2.4,18.14,2.4,18.14-11.22,6.3-20.88,6.23S222.73,211,222.73,211Z" transform="translate(-21.82 -42.3)"/><g class="cls-14"><path class="cls-15" d="M230.36,189.26s.39,10.47,1.73,12,5,7,8.27,7.29,8.35-3.56,9.88-6.54,2.3-10.46,1.91-13.54a90,90,0,0,0-2.22-9.4s-17.47-1.33-18.33,1.74A54.15,54.15,0,0,0,230.36,189.26Z" transform="translate(-21.82 -42.3)"/><path class="cls-7" d="M251.9,194.93l0,.26-.62,7.51-6.63,6.84h0l-.42.44-.41-.07-3.69-.6-4.62-.76s-3.27-1.94-4.19-5a43.23,43.23,0,0,1-1.2-7.78l.62,0c1.38.06,4.67.09,6-.67a7.23,7.23,0,0,1,1.32-.59,9.94,9.94,0,0,1,2.1-.48,4.24,4.24,0,0,1,2.34.21,37.74,37.74,0,0,0,4.54,1.51l4.78-.84Z" transform="translate(-21.82 -42.3)"/><path class="cls-8" d="M251.88,195.19l-.62,7.51-6.63,6.84h0a5.32,5.32,0,0,1-.83.37l-3.69-.6a.56.56,0,0,1,.25-.77c1.08-.63,3.8-1.48,5.28-3.11a20.49,20.49,0,0,0,2.35-3.17s1.29-3.16,1.1-4.27-1.87-.91-1.87-.91-2.06-.05-2.49.38-1.49,1.73-1.68,1.4,0-1.2-.39-2,.19-.28-.48-1.1a6.41,6.41,0,0,0-2.43-1.35l.39-.37a4.24,4.24,0,0,1,2.34.21,37.74,37.74,0,0,0,4.54,1.51l4.78-.84Z" transform="translate(-21.82 -42.3)"/><path class="cls-8" d="M233,197.59c-.09.82-.17,1.87-.17,2.48,0,1.05.34,3.79.34,3.79v.81l-2.11-4.75-.11-2.21h-.11l-.15-1.9c1.38.06,4.67.09,6-.67a7.23,7.23,0,0,1,1.32-.59h.16l-3,2.93Z" transform="translate(-21.82 -42.3)"/><path class="cls-9" d="M237.66,198.72c.21-.17,1.1-.82,1.1-.82h.48l-1,.82a2.23,2.23,0,0,0-.79.58C237.18,199.63,237.05,199.19,237.66,198.72Z" transform="translate(-21.82 -42.3)"/><path class="cls-9" d="M237.51,197.57c.06.14,1.25-.53,1.25-.53s.48.05.58-.14-.05-.58-.63-.29S237.37,197.18,237.51,197.57Z" transform="translate(-21.82 -42.3)"/><path class="cls-10" d="M230.36,184.32a54.1,54.1,0,0,1,7.06-2.26c2.83-.57,10.75-.15,13.84,1.44s1.18-7.73-1.74-8.59-10.61-1.15-10.61-1.15-5.76,1.68-7.06,3.6a37.94,37.94,0,0,0-2.4,4.22Z" transform="translate(-21.82 -42.3)"/><path class="cls-11" d="M230.55,183.6a40.71,40.71,0,0,1,4.18-2.07,32.52,32.52,0,0,1,5.6-.91l4.91.24,3.12,1.06,2.9.86v-4.32l-6.59-3.26-8.55,1.15-4.7,2.69-1.67,2.16Z" transform="translate(-21.82 -42.3)"/></g><path class="cls-10" d="M255.37,192.69l-5.07.17-.12-3.65,4.91-.16a.66.66,0,0,1,.68.6L256,192A.64.64,0,0,1,255.37,192.69Z" transform="translate(-21.82 -42.3)"/><path class="cls-11" d="M253.13,189.12l-2.95.09.12,3.65,3.37-.11C253.54,191.92,253.29,190.25,253.13,189.12Z" transform="translate(-21.82 -42.3)"/><path class="cls-10" d="M225.19,193.29l5.08.16.12-3.64-4.91-.16a.65.65,0,0,0-.68.6l-.22,2.34A.64.64,0,0,0,225.19,193.29Z" transform="translate(-21.82 -42.3)"/><path class="cls-16" d="M251.28,195.32a20.88,20.88,0,0,1-6,.91,4.43,4.43,0,0,1-1.41-.16,7.18,7.18,0,0,1-.86-.4c-.37-.17-.75-.38-1.14-.58a5.58,5.58,0,0,0-2-.65h-.13a2.24,2.24,0,0,0-.68.1,10.78,10.78,0,0,0-2.35,1.25,5.33,5.33,0,0,1-2.11.77,13.87,13.87,0,0,1-1.75.1c-1.69,0-3.4-.24-3.59-.59l-.13-.75s-.83-7.85,0-8.74c.66-.72,6.77-1.4,11.25-1.47h.74c.7,0,1.36,0,1.92.06l.39,0c.59.06,1.21.13,1.8.21.44,0,.86.11,1.27.18,2.9.46,5.35,1.1,5.39,1.34S251.59,195,251.28,195.32Z" transform="translate(-21.82 -42.3)"/><path class="cls-3" d="M243,185.16l-3.17,9.28h-.13a2.24,2.24,0,0,0-.68.1,10.78,10.78,0,0,0-2.35,1.25l3.67-10.68h.74C241.82,185.1,242.48,185.12,243,185.16Z" transform="translate(-21.82 -42.3)"/><path class="cls-3" d="M246.5,185.58l-3.45,10.09c-.37-.17-.75-.38-1.14-.58l3.32-9.69C245.67,185.45,246.09,185.51,246.5,185.58Z" transform="translate(-21.82 -42.3)"/><path class="cls-10" d="M241.12,186.09h0c.88,0,1.63,0,2.22.08a43.07,43.07,0,0,1,7.56,1.37c0,1.53-.26,5.71-.46,7a25.42,25.42,0,0,1-5.12.66,3.77,3.77,0,0,1-1.07-.1,13.36,13.36,0,0,1-1.24-.59,7.31,7.31,0,0,0-3.28-1.1,3.31,3.31,0,0,0-.95.14,7.94,7.94,0,0,0-2,1,5.21,5.21,0,0,1-2.28,1,13.21,13.21,0,0,1-1.63.09,12.7,12.7,0,0,1-2.7-.25l0-.24c-.33-3.17-.49-7-.22-7.92,1.15-.51,6.76-1.17,11.23-1.17Zm0-1c-4.53,0-11.29.72-12,1.47-.83.9,0,8.74,0,8.74l.13.76c.18.35,1.9.59,3.59.59a13.76,13.76,0,0,0,1.75-.1c2-.26,2.85-1.54,4.46-2a2.57,2.57,0,0,1,.67-.09c1.43,0,2.91,1.16,4.18,1.62a4.43,4.43,0,0,0,1.41.16,20.14,20.14,0,0,0,6-.92c.32-.34.68-8.05.61-8.38s-4.45-1.38-8.46-1.75c-.65-.06-1.44-.08-2.31-.08Z" transform="translate(-21.82 -42.3)"/><path class="cls-17" d="M222.73,211a22.28,22.28,0,0,0,15.36,4.78c9.41-.57,19.59-5.77,19.59-5.77a33.82,33.82,0,0,1-19.88,7C226.28,217,222.73,211,222.73,211Z" transform="translate(-21.82 -42.3)"/><path class="cls-3" d="M270.16,311.51s-1.73,4.11-3.08,4.19-12.09,2.42-16.89,1.59-15.59-.05-15.59-.05l-.79,0h-.5c-1.65,0-4.61.05-7.31,0a31.57,31.57,0,0,1-5.89-1.07c-4.73-1.18-10.06-2.91-10.06-2.91a17.84,17.84,0,0,1-2.68-3.81h0s1.35-9.76,2.31-13.48,2.31-27,2.11-35.14a147.89,147.89,0,0,1,2.69-32c2.5-12.5,8.26-17.83,8.26-17.83l35-1,5.76,3s.84,11.77,1.34,21.38c.23,4.18.39,7.95.39,10.16,0,7.28-.77,41.68,1.34,49.58S270.16,311.51,270.16,311.51Z" transform="translate(-21.82 -42.3)"/><path class="cls-6" d="M266.51,294.14c-2.11-7.9-1.34-42.3-1.34-49.58,0-2.21-.16-6-.39-10.16-2.36-6.8-4.36-12-4.36-12-2.31,3.92-2.8,16.59-2.8,16.59s.76,13.43,1.15,21.78-1.15,29.66-1.15,29.66-2.32,10.25-2.44,13.19,2.44,8.47,2.44,8.47-3.47,1.78-5.64,1.58a15.42,15.42,0,0,0-3.56.36h0s-11.77.76-14.49.38a95.11,95.11,0,0,0-9.57-.74,28.42,28.42,0,0,1,4.32,1.26c.88.48,9.5,1.16,11.3,1.27-2.35.57-5.38,1.08-5.38,1.08s10.78-.78,15.59.05,15.55-1.51,16.89-1.59,3.08-4.19,3.08-4.19S268.62,302,266.51,294.14Z" transform="translate(-21.82 -42.3)"/><path class="cls-6" d="M230.31,315.7s-7.82.34-10.2.47c-4.73-1.18-10.06-2.91-10.06-2.91a17.84,17.84,0,0,1-2.68-3.81c.29.12,4.85,2.14,6.33,2.6s5.38,2.13,5.38,2.13l6,1.06Z" transform="translate(-21.82 -42.3)"/><path class="cls-17" d="M233,305c-.49,2.93-.9,5.46-.66,6.32.47,1.74,1.21,4.89,1.43,5.93h-.5c-.26-1.13-.95-4.13-1.41-5.8-.27-1,.14-3.42.65-6.53.66-4,1.47-8.93,1.25-12.92-.22-4.23-.59-17.84-.88-28.77-.21-7.43-.38-13.84-.45-15.4-.19-3.82,3.91-30.52,4.08-31.66l.5.08c0,.28-4.28,27.79-4.09,31.56.08,1.56.25,8,.46,15.41.29,10.92.65,24.53.88,28.75C234.52,296,233.71,301,233,305Z" transform="translate(-21.82 -42.3)"/><path class="cls-3" d="M268.49,313.26s-1.79,25.91-2.3,32.06-2.82,37.26-2.95,38a17.87,17.87,0,0,1-1.28,3s-10.75-.13-14.08,0A22.55,22.55,0,0,1,241,385c-.87-.29-1.42-.51-1.42-.51a32.07,32.07,0,0,1-2-3.71c0-.39-3.71-67.52-3.71-67.52Z" transform="translate(-21.82 -42.3)"/><path class="cls-6" d="M268.49,313.26s-1.79,25.91-2.3,32.06-2.82,37.26-2.95,38a17.87,17.87,0,0,1-1.28,3s-10.75-.13-14.08,0A22.55,22.55,0,0,1,241,385l-1.47-2.68a40.93,40.93,0,0,0,5.89,1.6c2.18.31,6.27-.71,7.68-.84a14.44,14.44,0,0,0,3.84-1.41s4.74-20.22,5.38-27.65,1.67-24.6,1.67-24.6l-2.82-9s-20.16.29-26.6-3.16c0,0,12-3.35,16.61-3.19a71.27,71.27,0,0,0,9.12-.79Z" transform="translate(-21.82 -42.3)"/><path class="cls-12" d="M263.37,433.72s-1.29,8.13-1.8,8.26-4,.25-9.15.64c-4.48.33-9.43-.4-10.84-1.27h0a.69.69,0,0,1-.37-.4c-.26-1-.78-7.73-.78-7.73s1.94-7.74,1.94-8.51,0-10.45-.26-12.64-2.49-27.57-2.49-27.57l22.35,1.8s-1.56,18.3-1.68,20.88.12,13.66.25,15.6S263.37,433.72,263.37,433.72Z" transform="translate(-21.82 -42.3)"/><path class="cls-13" d="M263.37,433.72s-1.29,8.13-1.8,8.26-4,.25-9.15.64c-4.48.33-9.43-.4-10.84-1.27h0l-.37-.4s8,.78,10.83-.13,6.18-5,6.18-5l-1.16-9-4.89-3.86,3.22-1.55.77-30a20.25,20.25,0,0,0-7.34-2.83,29,29,0,0,1-9.2-4l22.35,1.8s-1.56,18.3-1.68,20.88.12,13.66.25,15.6S263.37,433.72,263.37,433.72Z" transform="translate(-21.82 -42.3)"/><path class="cls-3" d="M280.24,297.72c-.38,9.76-1.52,11.72-1.52,11.72l-2.12,2.07a46,46,0,0,1-9.74-.19,20.36,20.36,0,0,1-3.62-.83s-1.76-1-2-1.66-.41-23.15.11-31.35-1.41-40.26-1.41-46.06.51-14.75,3.52-18.4c0,0,7.61,8.8,9.53,12.75a21,21,0,0,1,1.22,3.67,163.22,163.22,0,0,1,3.29,19C277.73,251.72,280.62,288,280.24,297.72Z" transform="translate(-21.82 -42.3)"/><path class="cls-6" d="M280.24,297.72c-.38,9.76-1.52,11.72-1.52,11.72l-2.12,2.07a46,46,0,0,1-9.74-.19c.85-.16,1.77-.43,1.63-.83-.25-.73.8-.84.8-.84s4.81-.27,5.86-1.95,2.43-8.22,3.18-10.9-.4-14.82-.4-14.82-1.72-35-2.4-39.23c-.45-2.89-1-9.44-1.34-13.31a163.22,163.22,0,0,1,3.29,19C277.73,251.72,280.62,288,280.24,297.72Z" transform="translate(-21.82 -42.3)"/><path class="cls-6" d="M267.69,255.2a49.79,49.79,0,0,0,6.58,19.4,45.92,45.92,0,0,0,3.29,4.89c.22.28,1.29,1.38,2.22,2.39-.76-14-2.13-31.21-2.3-33.4,0-.53-.14-1.39-.28-2.46l-6.84,2.73C266.93,250.12,267.27,251.65,267.69,255.2Z" transform="translate(-21.82 -42.3)"/><path class="cls-7" d="M277.48,322.65c-.12.91-1.18,8.48-1.57,10.21s-2.71,4.84-2.71,4.84-2.31.51-4,.7a4.45,4.45,0,0,1-1.46,0A15.27,15.27,0,0,1,265,337l.93-3.64h0l.22-.84.69-2.71s.49-9.39.49-10.4c0-.75-.61-4.43-.91-6.17-.06-.36-.11-.64-.13-.79l0-.14.67.07,1.8.21,7.79.89S277.6,321.74,277.48,322.65Z" transform="translate(-21.82 -42.3)"/><path class="cls-9" d="M267.78,338.42A15.27,15.27,0,0,1,265,337l.93-3.64v3.34A5.55,5.55,0,0,0,267.78,338.42Z" transform="translate(-21.82 -42.3)"/><path class="cls-8" d="M266.33,332.5a3.52,3.52,0,0,0,2.61.27c1.36-.46,1.65-2.74,1.55-5s-1.16-8.11-1.16-8.11Z" transform="translate(-21.82 -42.3)"/><path class="cls-7" d="M269.42,327.84c-.19,1.92-1.64,4.75-2.61,4.83a.94.94,0,0,1-.69-.2,2.65,2.65,0,0,1-.66-.74h0a10.64,10.64,0,0,1-.58-1.05c-.39-.73-1.07-7.11-1.07-8,0-.7-.14-6.1-.2-8.65a.45.45,0,0,1,0-.08c0-.77,0-1.26,0-1.26l2.69-.26.64-.07,1.75-.17.05.38.18,1.35.64,4.84S269.62,325.93,269.42,327.84Z" transform="translate(-21.82 -42.3)"/><path class="cls-8" d="M277.48,322.65c-.12.91-1.18,8.48-1.57,10.21s-2.71,4.84-2.71,4.84-2.31.51-4,.7a10.43,10.43,0,0,0,2-3,41.52,41.52,0,0,0,1.73-5.07l-.86,5.61s2.71-3.1,2.81-5.65.39-12.13.39-12.13l-.49-2.1s-2.78-1.19-6-2.19c-.81-.26-1.66-.5-2.49-.7a21.28,21.28,0,0,0-2.82-.53l2.69-.26,0-.14.67.07,1.75-.17.05.38,7.79.89S277.6,321.74,277.48,322.65Z" transform="translate(-21.82 -42.3)"/><path class="cls-9" d="M265.46,331.72a10.64,10.64,0,0,1-.58-1.05c-.39-.73-1.07-7.11-1.07-8,0-.7-.14-6.1-.2-8.65.09.75.81,6.87.81,8.86A82.7,82.7,0,0,0,265.46,331.72Z" transform="translate(-21.82 -42.3)"/><path class="cls-11" d="M276.6,311.51l-.1,2a9.88,9.88,0,0,1-1.33.07c-2.05,0-4.1-.17-6.14-.34l-3.21-.29-1.37-.14c-.35,0-1,0-1.27-.18a1.23,1.23,0,0,1-.31-.4,4,4,0,0,1-.48-2.22,32.72,32.72,0,0,0,5.06.65Z" transform="translate(-21.82 -42.3)"/><path class="cls-11" d="M407.37,273.08s11-3.87,9.94-18.71L408,257.6A16.19,16.19,0,0,0,407.37,273.08Z" transform="translate(-21.82 -42.3)"/><path class="cls-3" d="M438.48,244.18c-1.52,2.88-3.57,6.9-5.72,11-4.25,8.16-8.87,16.77-10.49,17.88a13.91,13.91,0,0,1-2.54,1.26,13.18,13.18,0,0,1-4.23,1.06c-1.55,0-9.29-8.52-9.29-8.52l11.09-12.51s11.34-9.07,16.1-15.46A8.7,8.7,0,0,0,438.48,244.18Z" transform="translate(-21.82 -42.3)"/><path class="cls-6" d="M422.21,270.67a12.67,12.67,0,0,1-2.41,2.52c-1.49.61-3.18,2.21-4.25,2.22-1.55,0-9.33-8.48-9.33-8.48l11-12.56s0,.09-.1.25v0c-.93,1.56-5.79,9.79-5.71,12.16a7.76,7.76,0,0,0,3.58,5.7C417.13,273.84,420.09,272.26,422.21,270.67Z" transform="translate(-21.82 -42.3)"/><path class="cls-6" d="M453.4,230.72c-.66.47-11.23,7.95-12.55,9.27-.64.65-4.21,7.75-8.09,15.22L439,238.38Z" transform="translate(-21.82 -42.3)"/><path class="cls-7" d="M453.43,230.7l0,0c-.66.47-11.23,7.95-12.55,9.27a1.45,1.45,0,0,0-.15.2,1,1,0,0,0-.1.15c-.19.28-.44.71-.74,1.25-.06.11-.12.23-.19.34l-.16.31-.17.32a.64.64,0,0,0-.08.14l-.29.55c-.16.29-.33.61-.49.93a9.11,9.11,0,0,1-5.08-5.26c.1-.13.19-.26.27-.38q.33-.45.6-.87s.39-13.17-.19-15.29,1.35-.39,2.13.19,1.16,4.26,1.55,5.23,2.51.38,2.9-.39,5-6.2,5-6.2,4.07.78,5.23,1.75S453.43,230.7,453.43,230.7Z" transform="translate(-21.82 -42.3)"/><path class="cls-8" d="M453.4,230.72c-.66.47-11.23,7.95-12.55,9.27a1.45,1.45,0,0,0-.15.2,1,1,0,0,0-.1.15c-.19.28-.44.71-.74,1.25-.06.11-.12.23-.19.34l-.16.31a3.24,3.24,0,0,0-.17.32.64.64,0,0,0-.08.14c-.1.17-.19.36-.29.55s-.33.61-.49.93a8.51,8.51,0,0,1-1.38-.71l1.88-5.09Z" transform="translate(-21.82 -42.3)"/><path class="cls-18" d="M386.34,432.18s-1.29,4.77-1.42,5.55a43.91,43.91,0,0,0,.13,4.51s8.65,1.17,16,1.42,17.55-.13,18.32-.25-1-7.1-2.45-8.26-9-1.29-11-1.55a10.87,10.87,0,0,1-3.87-1.55Z" transform="translate(-21.82 -42.3)"/><path class="cls-10" d="M403.5,432.38s-11,1.74-19.36.38c0,0-1-43.16-1.55-49.55-.08-.9-.3-2.74-.63-5.25v0c-2-15.37-7.69-55.5-7.69-55.5l26.32,1.74s.05.94.12,2.54c.39,8.33,1.57,34.68,1.24,42C401.56,377.41,403.5,432.38,403.5,432.38Z" transform="translate(-21.82 -42.3)"/><path class="cls-11" d="M382.21,368.12a97.93,97.93,0,0,1-.25,9.82c-2-15.37-7.69-55.5-7.69-55.5l26.32,1.74s.05.94.12,2.54l-19.66,2.11S381.82,366.18,382.21,368.12Z" transform="translate(-21.82 -42.3)"/><path class="cls-18" d="M351.63,430.12c0,.38-2.06,3.87-2.32,5.93s-.26,6.84-.26,6.84,7.74,1.42,10.58,1.16,9-.13,9-.13.39-11.35-1-12.9S351.63,430.12,351.63,430.12Z" transform="translate(-21.82 -42.3)"/><path class="cls-10" d="M380.08,322.83c-.39.77-3.68,42.77-4.65,47.61s-6.58,61.16-6.58,61.16-12.19.2-18.77-.77c0,0,1.06-37,1.61-57.39v0c.19-7.1.32-12.19.32-13,0-3.29-1-40.65-1-40.65l26.57,2.84Z" transform="translate(-21.82 -42.3)"/><path class="cls-11" d="M378.92,324.38a16.73,16.73,0,0,1-1,4.25c-.39.58-21.29,1.75-21.29,1.75s-.77,24-.77,25.35c0,.83-2.35,10.33-4.2,17.69.19-7.1.32-12.19.32-13,0-3.29-1-40.65-1-40.65l26.57,2.84Z" transform="translate(-21.82 -42.3)"/><path class="cls-10" d="M417.3,254.38s-5.84,6.25-8.59,13.4a20.81,20.81,0,0,0-1.34,5.31s-10.84-15.75-14.71-30.46c0-.11-.06-.21-.08-.32-3.72-14.5.85-21.74.85-21.74s10.2,14.71,12.13,16.9S417.3,254.38,417.3,254.38Z" transform="translate(-21.82 -42.3)"/><path class="cls-11" d="M408.71,267.78a20.81,20.81,0,0,0-1.34,5.31s-10.84-15.75-14.71-30.46c0-.11-.06-.21-.08-.32l4.7-12.05,5.83,16.5Z" transform="translate(-21.82 -42.3)"/><path class="cls-10" d="M402.59,325.86s-6.7,1.16-20.51.39-33.42-4.39-33.42-4.39.07-.47.17-1.28c.69-4.87,3.08-22,3.18-23.24.13-1.42,3.62-37,3.1-42.06-.27-2.65-2.05-10.54-3.46-17.62-1.27-6.34-2.24-12-1.57-12.7,1.42-1.42,14.56-7,14.56-7l19.79-.06s8.1,1.55,9,2.71,6.2,15.23,6.33,19.1.38,39.74.9,49.93S402.59,325.86,402.59,325.86Z" transform="translate(-21.82 -42.3)"/><path class="cls-11" d="M357.82,290.12l.39,30.58-9.38-.12c.69-4.87,3.08-22,3.18-23.24.13-1.42,3.62-37,3.1-42.06-.27-2.65-2.05-10.54-3.46-17.62l3.54-1.94a104.88,104.88,0,0,1,3.21,18C359.18,263.21,357.82,290.12,357.82,290.12Z" transform="translate(-21.82 -42.3)"/><rect class="cls-3" x="368.23" y="198.46" width="4.94" height="1.84"/><path class="cls-3" d="M352.92,272.18l-.1,4-.16,6.41L352,316.19a42.65,42.65,0,0,1-7.86,0c-.6-7.44-2.28-27.09-2.49-29.93a50.26,50.26,0,0,1,.44-8.16c.12-1,.21-1.65.21-1.65V268.7Z" transform="translate(-21.82 -42.3)"/><path class="cls-6" d="M352.92,272.18l-.1,4a31.1,31.1,0,0,1-10.69,1.87c.12-1,.21-1.65.21-1.65V268.7Z" transform="translate(-21.82 -42.3)"/><path class="cls-7" d="M354.85,338.12l-4.26,2.19s-.57-.14-1.32-.36c-1.3-.37-3.17-1-3.58-1.57-.64-.91-2.58-13-2.58-13s1.29-5.67,1.29-6.32c0-.12-.08-1.17-.22-2.84l.4,0a43.3,43.3,0,0,0,7.46,0l0,1.67,1.48,4.67q0,.17.09.3c0,.05,0,.11.05.18l.58,1.82Z" transform="translate(-21.82 -42.3)"/><path class="cls-8" d="M353.45,331.06l-.53-4.25-1.87-5.29-1.6-2.94-.25-1.74a19.35,19.35,0,0,1-4.62-.62,43.3,43.3,0,0,0,7.46,0l0,1.67,1.48,4.67q0,.17.09.3c0,.05,0,.11.05.18C354,324.8,353.45,331.06,353.45,331.06Z" transform="translate(-21.82 -42.3)"/><path class="cls-8" d="M350.59,340.31s-.57-.14-1.32-.36l.47-3.61Z" transform="translate(-21.82 -42.3)"/><path class="cls-10" d="M350.08,225a39.76,39.76,0,0,0-4.25,9.81,150.7,150.7,0,0,0-7.23,37s10.71,2.33,17,2.33a247.07,247.07,0,0,0,.78-26.84C355.89,235.15,353.7,226.76,350.08,225Z" transform="translate(-21.82 -42.3)"/><circle class="cls-19" cx="355.81" cy="213.62" r="1.35"/><path class="cls-19" d="M368.66,240.73l-1,.26c-1-3.7-5.61-22.26-2.47-24.38a12.93,12.93,0,0,1,2.94-1.37c-.12.41-.26.81-.42,1.21a9.88,9.88,0,0,0-2,1,.71.71,0,0,0-.24.27,2.61,2.61,0,0,0-.32,1C364.63,222.49,366.68,233.14,368.66,240.73Z" transform="translate(-21.82 -42.3)"/><path class="cls-19" d="M390.54,232.58l-1,.11c0-.11-1.21-10.24-5.12-14.68l-.18-.19a6.24,6.24,0,0,0-1.78-1.38c-.27-.13-.54-.26-.82-.37l.11-1a9.68,9.68,0,0,1,1.15.49C388.9,218.53,390.48,232,390.54,232.58Z" transform="translate(-21.82 -42.3)"/><path class="cls-19" d="M366.39,256.57c-.18-.54-4.5-13.23.54-16a3.63,3.63,0,0,1,3.4-.16c3.6,1.62,6.35,8.89,7.61,14.63l-1,.21c-1.31-5.94-4-12.55-7.05-13.93a2.64,2.64,0,0,0-2.51.13c-3.58,2-1.26,11.36-.07,14.81Z" transform="translate(-21.82 -42.3)"/><path class="cls-19" d="M393.12,234.83a2.65,2.65,0,1,1-2.65-2.65A2.65,2.65,0,0,1,393.12,234.83Z" transform="translate(-21.82 -42.3)"/><circle class="cls-3" cx="368.65" cy="192.53" r="1.55"/><path class="cls-19" d="M368.47,257.15a1.36,1.36,0,1,1-1.35-1.36A1.35,1.35,0,0,1,368.47,257.15Z" transform="translate(-21.82 -42.3)"/><path class="cls-19" d="M367.26,238a1,1,0,0,1-1-.79c-.43-2-1.24-5.62-1.24-5.62l1.95-.43s.82,3.63,1.25,5.63a1,1,0,0,1-.77,1.19A.75.75,0,0,1,367.26,238Z" transform="translate(-21.82 -42.3)"/><path class="cls-20" d="M384.43,218c-.05,4.34-6.29,13-6.29,13-5.23-2.1-11.1-9.75-12.92-12.26a2.61,2.61,0,0,1,.32-1l1.86-.43c.12-.27.24-.55.34-.83s.3-.8.42-1.21l.21-.69c.16-.56.3-1.11.41-1.62.34-1.6.46-2.79.46-2.79H382.3l-.42,3.78h0l-.12,1.12-.11,1-.12,1.08,2.72.67Z" transform="translate(-21.82 -42.3)"/><path class="cls-21" d="M382.3,210.14l-.42,3.78h0c-1.81,2.34-4.76,5.17-6.83,4.38-1.84-.7-4.49-3.38-6.27-5.38.34-1.6.46-2.79.46-2.79Z" transform="translate(-21.82 -42.3)"/><path class="cls-12" d="M388.53,190.89a46,46,0,0,1,0,6c-.25.94-.54,4.87-1.4,5.13s-1.18-10.26-1.05-11.48,2.2-.78,2.2-.78Z" transform="translate(-21.82 -42.3)"/><path class="cls-20" d="M387.24,193.34c0,.41-.12,9.68-.12,11.1s-4.65,7.74-6.84,9.55a7.93,7.93,0,0,1-4.39,2.06c-1.16.26-8.39-5.16-9.55-7s-2.06-10.71-1.55-15.22,2.33-8.39,7.1-9.55,7.48-2.07,10.84-.78S387.5,189.34,387.24,193.34Z" transform="translate(-21.82 -42.3)"/><path class="cls-15" d="M376.55,196.6a5.07,5.07,0,0,0-.72-.4,3,3,0,0,0-1.47-.29,3,3,0,0,0-1.79.9c-.15.18-.24.4-.39.57-.33.38.46.8.57.25,0-.13.22-.3.31-.39a1.88,1.88,0,0,1,.43-.31,2,2,0,0,1,1-.26,2,2,0,0,1,1,.33,4.26,4.26,0,0,1,.54.41,1.2,1.2,0,0,0,.65.38.44.44,0,0,0,.47-.58C377.07,196.92,376.79,196.76,376.55,196.6Z" transform="translate(-21.82 -42.3)"/><path class="cls-15" d="M384.44,197.78a3.7,3.7,0,0,0-.42-.37,3.08,3.08,0,0,0-1.1-.43,2.91,2.91,0,0,0-1.1,0c-.38.08-1,.23-1.09.65a.37.37,0,0,0,.29.51,1,1,0,0,0,.56-.12,1.89,1.89,0,0,1,.21-.09l.09,0H382a2.19,2.19,0,0,1,.84,0,2.4,2.4,0,0,1,.8.25,1.25,1.25,0,0,1,.35.21,2.32,2.32,0,0,0,.4.3.31.31,0,0,0,.42-.33A1,1,0,0,0,384.44,197.78Z" transform="translate(-21.82 -42.3)"/><path class="cls-12" d="M383.12,201.18l0,0,.06-.07h0Z" transform="translate(-21.82 -42.3)"/><path class="cls-12" d="M383.32,200.65a.86.86,0,0,0-.12-.44,1,1,0,0,0-.32-.32.89.89,0,0,0-.89,0,1,1,0,0,0-.32.32,1.11,1.11,0,0,0-.12.44,1.05,1.05,0,0,0,.13.49h0l.13.17h0c.06,0,.11.09.18.13h0a.66.66,0,0,0,.21.08.82.82,0,0,0,.44,0,.73.73,0,0,0,.35-.2h0s0-.06.06-.09l.06-.09h0v0h0l0,0A.89.89,0,0,0,383.32,200.65Z" transform="translate(-21.82 -42.3)"/><path class="cls-12" d="M375.69,199.89l-.07-.17-.11-.14a.55.55,0,0,0-.22-.14h-.05l-.12,0a.5.5,0,0,0-.14-.08l-.24,0a.83.83,0,0,0-.44.12l-.18.14a.86.86,0,0,0-.23.39.69.69,0,0,0,0,.35.65.65,0,0,0,.11.33.61.61,0,0,0,.23.25.62.62,0,0,0,.3.16.69.69,0,0,0,.35,0,.64.64,0,0,0,.33-.1.69.69,0,0,0,.25-.23s0-.07.06-.1v0a.54.54,0,0,0,.15-.22.37.37,0,0,0,0-.18A.5.5,0,0,0,375.69,199.89Z" transform="translate(-21.82 -42.3)"/><path class="cls-21" d="M380.75,205.29a1.2,1.2,0,0,0-.51-.77c-.17-.12-.51-.28-.53-.51a1.17,1.17,0,0,1,.07-.25c0-.12.06-.24.08-.36l.14-.64a4.14,4.14,0,0,0,.12-1.6.54.54,0,0,0-1-.13,6.29,6.29,0,0,0-.35,2.44,1.5,1.5,0,0,0,.26,1,2.3,2.3,0,0,0,.57.46c.19.1.47.25.5.48s-.27.59-.48.74c-.48.35-1.28.62-1.76.13-.2-.21-.52.06-.39.3a1.47,1.47,0,0,0,2,.47C380.15,206.71,380.86,206.07,380.75,205.29Z" transform="translate(-21.82 -42.3)"/><path class="cls-21" d="M380,208.88a4,4,0,0,1-5.46-.27c-.11-.12-.33,0-.24.19a3.9,3.9,0,0,0,2.84,1.76,3.69,3.69,0,0,0,3.19-1.35A.23.23,0,0,0,380,208.88Z" transform="translate(-21.82 -42.3)"/><path class="cls-3" d="M384.43,218c-.05,4.34-6.29,13-6.29,13-5.23-2.1-11.1-9.75-12.92-12.26a2.61,2.61,0,0,1,.32-1l1.86-.43c.12-.27.24-.55.34-.83s.3-.8.42-1.21l.21-.69a10.63,10.63,0,0,0,6.82,2.71,10.33,10.33,0,0,0,6.57-2.21l-.11,1-.12,1.08,2.72.67Z" transform="translate(-21.82 -42.3)"/><path class="cls-6" d="M375.19,217.26a9.11,9.11,0,0,1-2.28-.3,8.85,8.85,0,0,0,2.14,1.35c1.39.53,3.16-.56,4.72-2A10.93,10.93,0,0,1,375.19,217.26Z" transform="translate(-21.82 -42.3)"/><path class="cls-3" d="M386.49,206l-.39.79a28.4,28.4,0,0,1-3,5c-.9.93-2.61,3.44-5,4.48a5.19,5.19,0,0,1-2.22.45c-3.51-.11-7.52-4.57-8.25-5.71a25.34,25.34,0,0,0,1.48-6.05s4.52-2.2,8.58-1.75A30.59,30.59,0,0,1,386.49,206Z" transform="translate(-21.82 -42.3)"/><path class="cls-3" d="M369.36,205.66c-.89-1.72-4.7-4.88-4.74-4.92l.32-.38c.16.13,3.93,3.26,4.86,5.07Z" transform="translate(-21.82 -42.3)"/><path class="cls-3" d="M367.71,211a21.75,21.75,0,0,1-3.3-5.69l.47-.18a21,21,0,0,0,3.63,5.78Z" transform="translate(-21.82 -42.3)"/><path class="cls-10" d="M390,194.35a14.56,14.56,0,0,1-2.84,8,14.88,14.88,0,0,0,.08-7,5.93,5.93,0,0,0-3.06-3.86h0c-2.38-1.21-5.51-.92-7.8-.28-4.79,1.36-7.15,4.07-8.63,8.29a22.33,22.33,0,0,0-1,6.77v0a32.73,32.73,0,0,0,.11,3.52c-2.57-.95-4.2-3-5.62-6.78a11.18,11.18,0,0,1-.49-1.78c-.9-4.49-.62-12.47,2.24-15.78,3.09-3.56,10.93-6.8,17.44-4.65a12.3,12.3,0,0,1,1.27.49,16.49,16.49,0,0,1,3.54,2.16,0,0,0,0,0,0,0A13,13,0,0,1,390,194.35Z" transform="translate(-21.82 -42.3)"/><path class="cls-22" d="M386.1,206.82a28.4,28.4,0,0,1-3,5c-.9.93-2.61,3.44-5,4.48-1.67-.17-3.35-.52-3.35-.52l-1.62-1.44s2.51.66,3.58,0c0,0,4.11-4,4.4-5.72a7.27,7.27,0,0,0-.58-3.65S385.2,206.16,386.1,206.82Z" transform="translate(-21.82 -42.3)"/><path class="cls-11" d="M390,194.35a14.56,14.56,0,0,1-2.84,8,14.88,14.88,0,0,0,.08-7l.14-1.55c1.13.15,1.58-1.94.93-4a48.78,48.78,0,0,0-3.08-6.32A13,13,0,0,1,390,194.35Z" transform="translate(-21.82 -42.3)"/><path class="cls-23" d="M380.38,180.8c-6.9-.66-13.31,1.55-16.88,5.64s-2.8,14.79-2.8,14.79c-.9-4.49-.62-12.47,2.24-15.78C366,181.89,373.87,178.65,380.38,180.8Z" transform="translate(-21.82 -42.3)"/><path class="cls-23" d="M384.14,191.47c-2.38-1.21-5.51-.92-7.8-.28-4.79,1.36-7.15,4.07-8.63,8.29a22.33,22.33,0,0,0-1,6.77c-.05-.32-.55-4.18.11-5.89s2.29-5.63,3.79-7.12,4.13-3.21,5.74-3.29S382.21,189.9,384.14,191.47Z" transform="translate(-21.82 -42.3)"/><path class="cls-24" d="M91.46,291s3.07-33.51,3.07-43.25,8.38-40.07,8.38-40.07l5.49-1.74,15.58.71,6.67-1.1,5.68,3.68,5.42,80.52a15.57,15.57,0,0,1-6.84,2.66C131.3,292.7,96,293.78,91.46,291Z" transform="translate(-21.82 -42.3)"/><path class="cls-11" d="M126,198.1s4.91-3.36,6.13-8.39a29.09,29.09,0,0,0,.64-9.56l-5.72,11.74Z" transform="translate(-21.82 -42.3)"/><path class="cls-20" d="M124,214.83c-2.22,2.8-6.77,5.22-9,3.67a11,11,0,0,1-4.16-6.67,26.14,26.14,0,0,1,.19-6.78s.16-.67.35-1.64c.05-.25.1-.53.15-.82s.07-.36.1-.54a23.9,23.9,0,0,0,.37-3.67c0-2.62,12.49-.68,12.49-.68l.42,2.53.34,2,.14.88.26,1.53S126.2,212,124,214.83Z" transform="translate(-21.82 -42.3)"/><path class="cls-21" d="M124.88,200.23c-1.5,1.81-4.35,5-6.33,5.89-2.16,1-5.18-1.63-7-4.07a23.9,23.9,0,0,0,.37-3.67c0-2.62,12.49-.68,12.49-.68Z" transform="translate(-21.82 -42.3)"/><path class="cls-20" d="M106.53,180.59s0,11.49,1.19,14.26,6.34,8.32,8.12,8.72,8.32-3,11.29-7.73,2.38-14.85,2.18-17.62-10.1-9.51-13.67-8.32-8.71,1.19-9.11,3.76A38,38,0,0,0,106.53,180.59Z" transform="translate(-21.82 -42.3)"/><path class="cls-24" d="M112.78,185.56a.66.66,0,0,0-.24-.23.62.62,0,0,0-.32-.09.63.63,0,0,0-.33.09h0a.72.72,0,0,0-.25.24l0,0a.7.7,0,0,0-.09.35l0,.18a.67.67,0,0,0,.18.3.6.6,0,0,0,.21.14.63.63,0,0,0,.27.06.58.58,0,0,0,.26-.06.64.64,0,0,0,.22-.14.75.75,0,0,0,.17-.3.14.14,0,0,0,0-.06.57.57,0,0,0,0-.22A.73.73,0,0,0,112.78,185.56Z" transform="translate(-21.82 -42.3)"/><path class="cls-24" d="M121.2,185.55l-.08-.2-.13-.16a.56.56,0,0,0-.26-.17.39.39,0,0,0-.21-.06.58.58,0,0,0-.32,0l-.2.08-.16.13a.62.62,0,0,0-.15.21l0,0,0,0v0a.73.73,0,0,0-.1.39,1.36,1.36,0,0,0,0,.2.79.79,0,0,0,.2.33.44.44,0,0,0,.15.12.77.77,0,0,0,.26.07l.1,0h.08a.22.22,0,0,0,.14,0,.59.59,0,0,0,.31-.09l.16-.13.13-.17a.63.63,0,0,0,.1-.3A.69.69,0,0,0,121.2,185.55Z" transform="translate(-21.82 -42.3)"/><path class="cls-15" d="M113.83,183c-.16-.33-.67-.29-1-.29s-.65,0-1,.05a4.56,4.56,0,0,0-1.85.62c-.18.12-.06.45.16.37a6.58,6.58,0,0,1,1.75-.37,3.54,3.54,0,0,1,.86,0l.43.1a.58.58,0,0,0,.57-.1A.33.33,0,0,0,113.83,183Z" transform="translate(-21.82 -42.3)"/><path class="cls-15" d="M122.47,183.07a3.71,3.71,0,0,0-1.52-.51,4,4,0,0,0-.77,0,3,3,0,0,0-.43.08l-.19,0-.09,0s-.09,0,0,0a.41.41,0,1,0,.29.71,1.74,1.74,0,0,1,.58-.21,2.74,2.74,0,0,1,.64-.09,3.08,3.08,0,0,1,1.34.26A.2.2,0,0,0,122.47,183.07Z" transform="translate(-21.82 -42.3)"/><path class="cls-3" d="M121.23,195.07a5.68,5.68,0,0,1-4.55,2.62,5.5,5.5,0,0,1-4.7-2.27,38.69,38.69,0,0,1,4.32-.26l2.54,0A9.84,9.84,0,0,0,121.23,195.07Z" transform="translate(-21.82 -42.3)"/><path class="cls-15" d="M116.12,192.19c-.43-.16-1.14-.4-1.31-.88s.33-1,.69-1.22a1.23,1.23,0,0,0,.54-.65,2.91,2.91,0,0,0-.15-1.05,5.27,5.27,0,0,1-.07-1.12c0-.41.13-.82.12-1.22a.4.4,0,0,0-.78-.11,4,4,0,0,0-.07,1.33c0,.45,0,.89.08,1.34a1,1,0,0,1,0,.49.72.72,0,0,1-.27.25,1.94,1.94,0,0,0-.67.75,1.59,1.59,0,0,0,.25,1.75,2.38,2.38,0,0,0,1.64.62C116.26,192.49,116.27,192.24,116.12,192.19Z" transform="translate(-21.82 -42.3)"/><path class="cls-3" d="M126.88,192.54l-.49-.13a17.28,17.28,0,0,1,2.83-5.89l.39.32A17.06,17.06,0,0,0,126.88,192.54Z" transform="translate(-21.82 -42.3)"/><path class="cls-3" d="M128.24,193.73l-.43-.27a12.86,12.86,0,0,0,1.5-5.09l.5.06A13.22,13.22,0,0,1,128.24,193.73Z" transform="translate(-21.82 -42.3)"/><path class="cls-3" d="M106.77,191.9s-.42-3.34-.59-5.93l.5,0c.17,2.57.75,6.23.75,6.26Z" transform="translate(-21.82 -42.3)"/><path class="cls-3" d="M106.77,191.9a32.2,32.2,0,0,1,8.06-2.8c4.93-1.07,11,2.06,13.57,4.12,0,0,.27,1.6-1.42,4.26s-5.76,8.18-10.3,7.49C113.5,204.49,106.79,199.75,106.77,191.9Z" transform="translate(-21.82 -42.3)"/><path class="cls-22" d="M125.91,192.54c-.82-.24-2.18-1.12-3.87-1.63a30.92,30.92,0,0,0-5.44-.65s1.61,1.07,2.76,1.81a38.34,38.34,0,0,0-3.9-.55l4,1.45,1.34.23a9,9,0,0,1,1.09,1.87c.77,1.63-.49,4.53-1.45,6.27s-4.39,2.85-4.39,2.85a9,9,0,0,0,3.56-.24,18.79,18.79,0,0,0,5-3.92c1.2-1.4,3.25-6.57,3.25-6.57A9,9,0,0,0,125.91,192.54Z" transform="translate(-21.82 -42.3)"/><path class="cls-25" d="M114.53,184.65a3.84,3.84,0,0,0-2.16-1.49,4.29,4.29,0,0,0-4.77,1.75,4,4,0,0,0,.26,4.33,4.37,4.37,0,0,0,1.92,1.45,4.13,4.13,0,0,0,4.46-1.33,4.19,4.19,0,0,0,.74-3.74A3.19,3.19,0,0,0,114.53,184.65Zm-.63,3.81a3.67,3.67,0,0,1-3.31,1.56,3.27,3.27,0,0,1-2.64-2.35,2.91,2.91,0,0,1,1.11-3.18,3.5,3.5,0,0,1,3.52-.27c1.42.74,2.41,2.8,1.35,4.2Z" transform="translate(-21.82 -42.3)"/><path class="cls-25" d="M117.44,184.85a3.93,3.93,0,0,0-.43-.18,3.08,3.08,0,0,0-2.68.29.22.22,0,0,0,.17.41c.27-.06.53-.14.81-.18a3.67,3.67,0,0,1,.74,0,4.41,4.41,0,0,1,.74.08,2.62,2.62,0,0,1,.4.11c.15,0,.27.13.43.08a.24.24,0,0,0,.17-.3A.55.55,0,0,0,117.44,184.85Z" transform="translate(-21.82 -42.3)"/><path class="cls-25" d="M129.72,182.76a11.34,11.34,0,0,0-2.9.79c-.8.3-1.57.62-2.33,1a2.8,2.8,0,0,0-2-1.39,7,7,0,0,0-2.89.14,3.87,3.87,0,0,0-1.71,6,4.4,4.4,0,0,0,1.93,1.45,4.13,4.13,0,0,0,4.46-1.33,4.21,4.21,0,0,0,.53-4.29c.79-.19,1.56-.42,2.33-.68a11.78,11.78,0,0,0,2.74-1.21C130,183.06,130,182.74,129.72,182.76Zm-5.81,5.71a3.27,3.27,0,0,1-4.49,1.14,3.2,3.2,0,0,1-1.12-4.43,3.59,3.59,0,0,1,4.15-1.16A3.08,3.08,0,0,1,123.91,188.47Z" transform="translate(-21.82 -42.3)"/><path class="cls-25" d="M107.84,185.05a3.54,3.54,0,0,0-.41-.26l-.42-.22-.42-.21-.2-.11-.11-.07a1,1,0,0,0-.28-.07.41.41,0,0,0-.39.26.45.45,0,0,0,.08.47,1.51,1.51,0,0,0,.5.27l.52.23a4,4,0,0,0,.46.14,3.23,3.23,0,0,0,.53.08.27.27,0,0,0,.27-.2A.28.28,0,0,0,107.84,185.05Z" transform="translate(-21.82 -42.3)"/><path class="cls-10" d="M132.63,185.9a10,10,0,0,1-4.24,7.32s1.73-7.56,0-10.27a7.91,7.91,0,0,0-1.31-1.58,14.76,14.76,0,0,0-8.87-3.77c-4.37-.31-8.83.17-10.67,3.22s-.84,10.75-.84,10.75c-3-2-3.27-11.13-2.45-14.38s3.43-7.35,9.19-9.29A19.32,19.32,0,0,1,129.15,170a6.71,6.71,0,0,1,2.2,3.05C132.83,176.58,133.12,182,132.63,185.9Z" transform="translate(-21.82 -42.3)"/><path class="cls-11" d="M132.63,185.9a10,10,0,0,1-4.24,7.32s1.73-7.56,0-10.27a7.91,7.91,0,0,0-1.31-1.58,7.52,7.52,0,0,1,2.3.79c.61.52,1.11.07,1.73-1.74a12.23,12.23,0,0,0,.62-4.71,15.42,15.42,0,0,0-.41-2.68C132.83,176.58,133.12,182,132.63,185.9Z" transform="translate(-21.82 -42.3)"/><path class="cls-23" d="M122.57,177.6c-1-.81-6.61-1.18-8.69-1a10.67,10.67,0,0,0-7.07,4.26c-.88,1.47-.63,4.23-.35,6,0-2.17.26-4.56,1.11-6,1.84-3,6.3-3.53,10.67-3.22a15.56,15.56,0,0,1,5.94,1.7A14.12,14.12,0,0,0,122.57,177.6Z" transform="translate(-21.82 -42.3)"/><path class="cls-23" d="M113.47,167.9c-5.76,1.94-8.37,6-9.19,9.29a25.87,25.87,0,0,0,.08,9.5,89.76,89.76,0,0,1,.63-9.5c.45-1.74,3.42-5.29,4.07-5.87A11.88,11.88,0,0,1,111.9,170s-2.36,1.68-1.63,2.39,5-.32,5.74-1.61a3.19,3.19,0,0,0,.21-2.56,21.71,21.71,0,0,1,5.67-.28c1,.13,2.34.2,3.59.23A19.22,19.22,0,0,0,113.47,167.9Z" transform="translate(-21.82 -42.3)"/><path class="cls-26" d="M128.62,431.79a33.94,33.94,0,0,0-2,4.16c-.29,1.07-.19,8.62-.19,8.62s11.9,1.45,19-.1c0,0-.48-8.52-.77-9.87a21.47,21.47,0,0,0-1.94-4.16Z" transform="translate(-21.82 -42.3)"/><path class="cls-26" d="M112.46,431.6s.78,12.68.48,12.77-12,.1-12,.1l-.58-1.55-1,1.65s-21.87,0-22.65-.1,1.16-6.77,3.29-7.64,11.81-2.23,11.81-2.23L95.72,430Z" transform="translate(-21.82 -42.3)"/><path class="cls-27" d="M116.55,292.39s0,.49-.06,1.4c-.18,4.18-.73,17.13-1.32,31.11h0c0,.26,0,.52,0,.77v0c-.61,14.35-1.28,29.62-1.63,37.45-.79,17.29,0,68.65,0,68.65s-10.85,2.32-19.37-.52c0,0-2-70-2.41-93.94-.06-3.86-.09-6.51-.07-7.48.16-7,0-35.44,0-35.44Z" transform="translate(-21.82 -42.3)"/><path class="cls-27" d="M145.49,432.31s-.61.12-1.7.27a55.77,55.77,0,0,1-15.51-.16c-.7-.1-1.42-.23-2.15-.37,0,0-4.64-51.61-4.9-57.29-.11-2.35-1.86-16.67-3.87-32.61-.72-5.7-1.47-11.6-2.19-17.24h0l-.12-.85c-1.53-12-2.92-22.67-3.54-27.43-.08-.64-.15-1.17-.2-1.59-.09-.68-.14-1-.14-1l.46,0,4.86-.18h.08l1.12,0,2.42-.09L138,293s0,.35,0,1c0,.82.07,2.13.12,3.83.17,5.06.46,13.6.8,23.21l0,.89c0,.19,0,.37,0,.56.25,7.32.53,15.2.81,22.58.15,4.27.3,8.38.45,12.12.37,9.71.69,17,.83,18.38C141.62,380.44,145.49,432.31,145.49,432.31Z" transform="translate(-21.82 -42.3)"/><path class="cls-18" d="M140.27,357.16,127,350.5l-.25-3.08-.34-4.25-3.42-.39-5.6-.63c-.72-5.7-1.47-11.6-2.19-17.24h0l-.12-.85-3.63-16.9L108.84,341s-2.25-.52-4.93-1.11c-3.61-.8-8-1.73-8.74-1.73l-3.45-.78c-.06-3.86-.09-6.51-.07-7.48.16-7,0-35.44,0-35.44l24.9-2s0,.49-.06,1.4h.08l1.12,0,2.42-.09L138,293s0,.35,0,1c0,.82.07,2.13.12,3.83.17,5.06.46,13.6.8,23.21l0,.89c0,.19,0,.37,0,.56.25,7.32.53,15.2.81,22.58C140,349.31,140.12,353.42,140.27,357.16Z" transform="translate(-21.82 -42.3)"/><path class="cls-19" d="M90.14,290.89s29.42,2.19,51.61-1.16v4s-35.35,2.58-51.61.51Z" transform="translate(-21.82 -42.3)"/><rect class="cls-28" x="110.49" y="289.37" width="7.2" height="7.2" rx="0.73" transform="translate(-26.91 -40.26) rotate(-1)"/><rect class="cls-3" x="111.62" y="290.5" width="4.94" height="4.94" transform="translate(-26.91 -40.26) rotate(-1)"/><path class="cls-3" d="M108.2,269.47c-.11,1.08-.15,2.73-.15,4.74,0,8.14.64,22.24.54,28.55-.13,7.87-5.17,40.26-5.17,40.26-10.71.9-21.42-2.58-21.42-2.58s7.23-49.42,7.49-58.58c.07-2.4.23-5.87.47-10,.14-2.5.3-5.24.49-8.13.68-10.6,1.62-23.19,2.52-33.22,1.55-17.29,9.94-22.83,9.94-22.83a100.08,100.08,0,0,1,2.45,14.45c.64,7.48,4.9,17,4.9,17s-.81,13-1.45,22.29C108.56,265,108.34,268,108.2,269.47Z" transform="translate(-21.82 -42.3)"/><path class="cls-6" d="M108.81,261.44c-.25,3.54-.47,6.53-.61,8-.11,1.08-.15,2.73-.15,4.74L90,271.85c.14-2.5.3-5.24.49-8.13Z" transform="translate(-21.82 -42.3)"/><path class="cls-3" d="M150.26,341A48.14,48.14,0,0,1,139.82,345a83.33,83.33,0,0,1-13.1,2.38c-2,.2-3.17.25-3.17.25l-.59-4.89c-.87-7.23-2.41-20.09-2.5-21.57-.07-1.15-.11-13.69-.32-26.38l0-1.18c0-.28,0-.56,0-.83l0-1.34c-.1-5.2-.24-10.25-.43-14.38,0-.54,0-1.06-.08-1.56-.11-2.18-.24-4-.39-5.42s-.27-2.77-.38-4.3a3.55,3.55,0,0,0,0-.46c-.09-1.45-.18-3-.25-4.49-.09-2.14-.17-4.33-.22-6.45,0-1.07-.05-2.12-.07-3.13-.13-6.41-.09-11.49-.09-11.49a0,0,0,0,1,0,0h0a.05.05,0,0,0,0,0c3.42-4.18,7.16-12.21,9.73-18.27.33-.78.64-1.52.92-2.22,1.37-3.33,2.22-5.65,2.22-5.65l1.64-1.36,2.86-2.38.79-.65,4.51,1.68s0,.71-.1,1.91V213c-.22,4.19-.69,13.7-1,20.11-.11,2.46-.19,4.46-.22,5.53,0,1.26.25,4.75.71,9.41.06.7.14,1.43.21,2.18,0,.14,0,.29.05.43.06.66.13,1.34.19,2,0,.38.09.77.13,1.17l.09.89c.37,3.66.79,7.65,1.19,11.64.12,1.14.24,2.29.35,3.43.05.45.09.9.14,1.35s.11,1.09.16,1.63c.27,2.7.52,5.32.74,7.77.42,4.66.73,8.67.82,11.35,0,1.34.16,3,.31,5,.14,1.55.31,3.26.5,5.07.08.75.16,1.51.25,2.29s.14,1.28.22,1.93c0,.15,0,.3,0,.46.09.8.19,1.62.29,2.45.06.51.12,1,.19,1.54.09.75.19,1.51.28,2.27s.19,1.52.29,2.29l.51,4c0,.2.05.39.08.59.08.63.17,1.26.25,1.89C148.94,332.08,150.26,341,150.26,341Z" transform="translate(-21.82 -42.3)"/><rect class="cls-29" x="103.85" y="198.87" width="6.29" height="1.81"/><path class="cls-6" d="M141.07,279.7l-9.84-3.52,7.46,7-19-6c0-.54,0-1.06-.08-1.56-.11-2.18-.24-4-.39-5.42s-.27-2.77-.38-4.3a3.55,3.55,0,0,0,0-.46c-.09-1.45-.18-3-.25-4.49-.09-2.14-.17-4.33-.22-6.45l4.56-2.12L134.2,247l2.42-15.74,0,0,1.19.69,1.91,1.1c-.11,2.46-.19,4.46-.22,5.53,0,1.26.25,4.75.71,9.41.06.7.14,1.43.21,2.18,0,.14,0,.29.05.43.06.66.13,1.34.19,2,0,.38.09.77.13,1.17l.09.89c.37,3.66.79,7.65,1.19,11.64.12,1.14.24,2.29.35,3.43.05.45.09.9.14,1.35s.11,1.09.16,1.63c.27,2.7.52,5.32.74,7.77Z" transform="translate(-21.82 -42.3)"/><path class="cls-6" d="M134.91,208.31l1.42.9s-.9,12.39-3.09,17l-2.33.65.78,2.19s-7.36,7.75-13.55,10.71a44.14,44.14,0,0,0,9.93-16.26A65.46,65.46,0,0,1,134.91,208.31Z" transform="translate(-21.82 -42.3)"/><path class="cls-3" d="M130.65,205.53l5.17,2.39s-1.55,12.39-3.75,17.81L129,226l1.16,2.71a67.17,67.17,0,0,1-12,11.09S131.17,216.83,130.65,205.53Z" transform="translate(-21.82 -42.3)"/><path class="cls-6" d="M102.88,209s-2.42,6.68-2.42,11.42,3.55,15.45,9.81,18.71l-3.81-10.78-1.06-12.58Z" transform="translate(-21.82 -42.3)"/><path class="cls-3" d="M110.27,239.15s-6.2-19.36-1.87-33.23l-5.49,1.74s-2.58,9.29-1.55,14.71l2.84,1.55-2.32,1.42S104.72,234.63,110.27,239.15Z" transform="translate(-21.82 -42.3)"/><path class="cls-3" d="M147.3,319.74a43.85,43.85,0,0,1-7.1,2.25,5.43,5.43,0,0,1-1.21-.09,30.17,30.17,0,0,1-4.79-1.45h0S133,315.13,132,308.68c-.49-3.19-.92-6.67-1.13-9.92l7.26-1c2.39-.32,4.85-.66,6.48-.91.14,1.55.31,3.26.5,5.07.08.75.16,1.51.25,2.29s.14,1.28.22,1.93c0,.15,0,.3,0,.46.09.8.19,1.62.29,2.45.06.51.12,1,.19,1.54.09.75.19,1.51.28,2.27s.19,1.52.29,2.29l.51,4C147.25,319.35,147.27,319.54,147.3,319.74Z" transform="translate(-21.82 -42.3)"/><path class="cls-3" d="M87.16,297.29H97.64s-1.94,17.77-3.57,20.24-8.4,1.9-8.4,1.9Z" transform="translate(-21.82 -42.3)"/><path class="cls-6" d="M147.55,321.63c-3.09.43-7.7,1-8.38.87l-.16,0c-1.15-.27-3.89-.91-4.81-2h0c-1-1.16-2.25-12.13-2.25-12.13l.09.37c.46,1.88,2.53,10.3,2.88,11,.27.53,2.62,1.06,4.05,1.34.65.13,1.11.2,1.11.2l5-3-1.29-6.71-3.1-1.29L145,306l.17-4c.08.75.16,1.51.25,2.29s.14,1.28.22,1.93c0,.15,0,.3,0,.46.09.8.19,1.62.29,2.45.06.51.12,1,.19,1.54.09.75.18,1.51.28,2.27s.19,1.52.29,2.29q.25,2,.51,4c0,.2.05.39.08.59C147.38,320.37,147.47,321,147.55,321.63Z" transform="translate(-21.82 -42.3)"/><path class="cls-6" d="M96.2,306.63S95.43,317,94,318.24s-8.34,1.19-8.34,1.19l.21-1.31s6.19.9,7.36-.91S96.2,306.63,96.2,306.63Z" transform="translate(-21.82 -42.3)"/><polygon class="cls-6" points="71.03 254.78 75.03 255.17 75.29 259.17 75.81 254.27 71.03 254.78"/><path class="cls-28" d="M114.4,227.12s-4.78,23.33-5.53,33.49c0,0,.4,14.41,3.49,20.41,0,0,5.62-15.59,5.78-21l-1-32.9S115.46,226.05,114.4,227.12Z" transform="translate(-21.82 -42.3)"/><path class="cls-28" d="M112.84,219a46.83,46.83,0,0,0,1.56,8.14,5.48,5.48,0,0,1,2.71,0s3.09-5.23,3.38-7.75-3.19-3.19-3.19-3.19l-4.06,1Z" transform="translate(-21.82 -42.3)"/><path class="cls-29" d="M117.3,216.18a25.09,25.09,0,0,1,3.48,5s9.29-6,9.87-15.68l-5.2-1.93S124.27,211.73,117.3,216.18Z" transform="translate(-21.82 -42.3)"/><path class="cls-29" d="M117.3,216.18a7.46,7.46,0,0,0-4.94,5,26.5,26.5,0,0,1-4-15.29l2.92-2.32S110.72,212.89,117.3,216.18Z" transform="translate(-21.82 -42.3)"/><path class="cls-3" d="M119.42,265.25s-3.46.55-8,1.24c-4.94.76-11.17,1.67-15.61,2.21a58,58,0,0,1-15.22-.13S76.33,261,76.07,258.5s11-41.16,13.42-45.16c0,0,7.22-4.13,13.42-5.67a54.64,54.64,0,0,0-7.21,13.74,35.65,35.65,0,0,0-1.18,4.32c-1.93,9.55-3,30.84-3,30.84s22.23-2.39,25.45-3l1.08,5.24Z" transform="translate(-21.82 -42.3)"/><path class="cls-6" d="M83.68,264.44s14.85-.22,24.65-2.32l3.27,2.32S92.2,266.63,83.68,264.44Z" transform="translate(-21.82 -42.3)"/><path class="cls-6" d="M119.42,265.25s-3.46.55-8,1.24l-3.09-4.37,7.61-4,2.14.66Z" transform="translate(-21.82 -42.3)"/><path class="cls-6" d="M95.7,221.41a35.65,35.65,0,0,0-1.18,4.32c-1.93,9.55-3,30.84-3,30.84a36.91,36.91,0,0,0-7.87,0l3.94-2.74-2-7.2,3.35-.25s.79-19.35,6.68-28Z" transform="translate(-21.82 -42.3)"/><path class="cls-7" d="M113.81,252l-4.22,7.11-.52.88s-6.19-2-8.42-2.71a40.55,40.55,0,0,0-6.39-1h-.2s.65-.66,1.64-1.53c1.69-1.49,4.36-3.63,6.5-4.23,2.81-.81,9,.75,11,1.31Z" transform="translate(-21.82 -42.3)"/><path class="cls-9" d="M113.16,251.85l-.32.53s-5.71-1.83-8.43-1.74-8.71,4.13-8.71,4.13c1.69-1.49,4.36-3.63,6.5-4.23C105,249.73,111.16,251.29,113.16,251.85Z" transform="translate(-21.82 -42.3)"/><path class="cls-8" d="M110.42,253.83l-.83,5.31-.52.88s-6.19-2-8.42-2.71a40.55,40.55,0,0,0-6.39-1A41,41,0,0,1,99.2,255a44.73,44.73,0,0,1,7.16.29Z" transform="translate(-21.82 -42.3)"/><path class="cls-3" d="M148.33,215.8c-1.94-2.59-7.49-4.91-7.49-4.91-1.42,1.55-4.13,9.94-4.25,16.65-.09,4.43.9,14.7,1.57,21.17.35,3.34.62,5.67.62,5.67a59.1,59.1,0,0,1-9.48-.9c-7.4-1.18-14.91-3.1-14.91-3.1s-4.13,1.67-5.16,3.22-.9,8.52-.9,8.52,5.93,2.06,13.42,4.77,24.9,5.29,26.45,4.39,5.93-6.58,5.93-7.23S150.26,218.38,148.33,215.8Z" transform="translate(-21.82 -42.3)"/><path class="cls-6" d="M144,248.05s3.14,1,3.43,1.71-4,5.81-4,5.81l-1.22-4.45Z" transform="translate(-21.82 -42.3)"/><path class="cls-6" d="M123.3,266.15s20,.61,22.55,0,6.77-2,6.77-2-2.61,4.35-3,4.35-6.48.59-6.48.59l4.68.48-1.29.68S128.82,268.5,123.3,266.15Z" transform="translate(-21.82 -42.3)"/><path class="cls-6" d="M137.24,222.66s.87-7.35,4.06-10.25C141.3,212.41,136.85,214.83,137.24,222.66Z" transform="translate(-21.82 -42.3)"/><path class="cls-19" d="M111.5,202.59c0,.29-.1.57-.15.82-11.25,4.69-9.5,28.85-9.48,29.1l-.7.05C101.09,231.5,99.33,207,111.5,202.59Z" transform="translate(-21.82 -42.3)"/><path class="cls-19" d="M127.61,230.26l-.69-.09c0-.19,2.4-19.2,1.65-22.29a7.14,7.14,0,0,0-3.21-4.74l-.14-.88.44.24a7.83,7.83,0,0,1,3.59,5.21C130,210.93,127.71,229.47,127.61,230.26Z" transform="translate(-21.82 -42.3)"/><circle class="cls-19" cx="105.16" cy="190.01" r="2.52"/><path class="cls-3" d="M128.4,232.31a1.42,1.42,0,1,1-1.42-1.42A1.43,1.43,0,0,1,128.4,232.31Z" transform="translate(-21.82 -42.3)"/><path class="cls-19" d="M98.28,244.45c0-.33-1-8.22,1.28-11.16a2.79,2.79,0,0,1,1.93-1.1,4.26,4.26,0,0,1,3.49,1.47c2.72,3.13,1.59,10.18,1.54,10.48l-.69-.11c0-.07,1.12-7-1.38-9.92a3.46,3.46,0,0,0-2.92-1.22,2,2,0,0,0-1.42.84C98,236.43,99,244.28,99,244.36Z" transform="translate(-21.82 -42.3)"/><path class="cls-19" d="M99.78,244.41a1.16,1.16,0,1,1-1.16-1.17A1.16,1.16,0,0,1,99.78,244.41Z" transform="translate(-21.82 -42.3)"/><circle class="cls-19" cx="84.22" cy="201.98" r="1.16"/><path class="cls-19" d="M101.49,229.16a.75.75,0,0,1-.74-.68,54.23,54.23,0,0,1,.32-7.18.75.75,0,0,1,1.49.15,56.49,56.49,0,0,0-.32,6.89.74.74,0,0,1-.68.81Z" transform="translate(-21.82 -42.3)"/><path class="cls-7" d="M144.39,252.89a7.74,7.74,0,0,1-.38,1.26c-.29.76-.62,1.42-.62,1.42a16.26,16.26,0,0,0-4.79-1.22,41.2,41.2,0,0,1-4.5-.23h0c-1.47-.15-3-.35-4.59-.59l-.69-.11c1-.76,5.37-4,9.15-4.89h0c4.29-1,5.19-.81,5.59-.7a.81.81,0,0,1,.58.74,2,2,0,0,1,0,.25,2.53,2.53,0,0,1-.11.65c-.09.3-.19.54-.19.54h0A6.59,6.59,0,0,1,144.39,252.89Z" transform="translate(-21.82 -42.3)"/><path class="cls-9" d="M144.17,248.56a50.92,50.92,0,0,0-7.55.63c-1.24.39-5.44,3.23-7.12,4.34l-.69-.11c1-.76,5.37-4,9.15-4.89h0c4.29-1,5.19-.81,5.59-.7A.81.81,0,0,1,144.17,248.56Z" transform="translate(-21.82 -42.3)"/><path class="cls-8" d="M144.08,249.46c-.09.3-.19.54-.19.54h0a13.78,13.78,0,0,0-2.79.43c-.91.3-2.15.83-2.3.89a8.06,8.06,0,0,1,3-1.6A22.79,22.79,0,0,1,144.08,249.46Z" transform="translate(-21.82 -42.3)"/><path class="cls-8" d="M144,254.15c-.29.76-.62,1.42-.62,1.42a16.26,16.26,0,0,0-4.79-1.22,41.2,41.2,0,0,1-4.5-.23,46.09,46.09,0,0,0,5.13-1,19,19,0,0,1,3.48-.71l.39.19-2.26,1.29s1,0,1.81.06A10.41,10.41,0,0,1,144,254.15Z" transform="translate(-21.82 -42.3)"/><path class="cls-3" d="M341.69,312.7h-.05l-3.71-.4-8-.88-.24-8.06-1.18-40.2L324.24,239l-1.9-10.71,2.32-6.71s7.74,8.13,8.65,9a14.05,14.05,0,0,1,2.19,5.16c1.37,6.12,2.59,11.71,3.62,17.42.36,2,.57,7.93.64,8.52C340.14,264.83,341.69,312.7,341.69,312.7Z" transform="translate(-21.82 -42.3)"/><path class="cls-6" d="M341.64,312.69l-3.71-.4a40.52,40.52,0,0,1-8.22-8.94l-1.18-40.2L324.24,239l0-15.1,9.17,11.8,2.95,7.95c.77,3.85,1.56,7.91,2.18,11.23l-.5,8.12-1.15,6.07,1.68,14.71Z" transform="translate(-21.82 -42.3)"/><polygon class="cls-27" points="336.28 250.78 333.73 273.61 320.99 272.19 308.82 270.83 300.39 269.89 301.3 261.77 302.94 247.06 317.4 248.67 336.28 250.78"/><polygon class="cls-30" points="320.99 272.19 308.82 270.83 301.3 261.77 302.94 247.06 317.4 248.67 317.43 248.72 320.99 272.19"/><rect class="cls-3" x="345.43" y="295.17" width="8.15" height="15.98" transform="matrix(0.99, 0.11, -0.11, 0.99, 13.94, -79.17)"/><path class="cls-7" d="M344.56,314.6l-.05.12,0,0c-.47.56-3.33,1.22-4.47.34s0-4.94,0-4.94a8.24,8.24,0,0,1,1.85-.07,1.65,1.65,0,0,1,1.15.46A13.27,13.27,0,0,1,344.56,314.6Z" transform="translate(-21.82 -42.3)"/><path class="cls-8" d="M344.56,314.6l-.05.12,0,0c-.47.56-3.33,1.22-4.47.34s0-4.94,0-4.94a8.24,8.24,0,0,1,1.85-.07c.05.86.19,2.24.33,3.45Z" transform="translate(-21.82 -42.3)"/><path class="cls-12" d="M300.14,441.57a18.41,18.41,0,0,1-.87,3.1s-13,1.45-13.64.38,0-6.38,0-6.38l2.9-6.87,1,0,9.67.16h.59S300.14,440.89,300.14,441.57Z" transform="translate(-21.82 -42.3)"/><path class="cls-22" d="M299.17,432c0,1.43-.32,8.21-.67,8.72s-8.52.09-10-.39c-1.25-.42.62-6.5,1-8.49Z" transform="translate(-21.82 -42.3)"/><path class="cls-12" d="M349.31,443.41c-.39.39-5.81.58-10,.39s-18.2.19-18.2.19l-2-2s.2-3.58.39-4.75c.07-.45.22-1.49.38-2.61.24-1.76.49-3.68.49-3.68l9.39-.19c.87,2.9,6.29,6.68,9.38,7.16l.94.17c2.29.47,6.35,1.51,8.35,2a1.55,1.55,0,0,1,1.17,1.57A3.83,3.83,0,0,1,349.31,443.41Z" transform="translate(-21.82 -42.3)"/><path class="cls-22" d="M340.08,438.06a8.14,8.14,0,0,1-5.48,2.06c-4.94.19-13-3.29-13.84-4.45-.24-.33-.56-.7-.88-1.07.24-1.76.49-3.68.49-3.68l9.39-.19c.87,2.9,6.29,6.68,9.38,7.16Z" transform="translate(-21.82 -42.3)"/><path class="cls-31" d="M337.31,300.76v57.29s-1.75,17.62-2.71,23-4.07,50.32-4.07,50.32a62.5,62.5,0,0,1-11.22.39s-1.17-34.07-1.55-43,1-30.39,1-30.39l-1.48-24.5-.08-1.44a0,0,0,0,1,0,0l-.74-12.19-.22-3.66.19-14.71,4.31-.24Z" transform="translate(-21.82 -42.3)"/><path class="cls-31" d="M318.36,325.63v.05c-.38,2.24-.78,4.53-1.18,6.8a0,0,0,0,0,0,0c-2.28,12.77-4.74,25.2-5.22,27.3-1,4.25-11.42,72.77-11.42,72.77-3.68.77-13.74-.19-13.74-.19.58-12.2,6-73.55,6-73.55,0-2.9.16-8.25.39-14.39.57-15.22,1.55-35.35,1.55-35.35L299,301s18.32-3.47,21.73.72a2.33,2.33,0,0,1,.53,1.21C321.57,305.4,320.17,315,318.36,325.63Z" transform="translate(-21.82 -42.3)"/><path class="cls-32" d="M337.31,300.76v39.45l-7.62-2.09L329.18,326l-8,11.1-2.45,21.35-1.48-24.5.06-.47,1-7.79v-.05l1.27-9.45-3.2,4.11-4,5.18.26,13.16-19.48,5.81c.57-15.22,1.55-35.35,1.55-35.35L299,301s18.32-3.47,21.73.72Z" transform="translate(-21.82 -42.3)"/><path class="cls-33" d="M331.84,286.52c.42,7.31.44,14.39-1.24,16.32a1.37,1.37,0,0,1-.89.51c-1.39.16-3.93.3-6.89.41-8,.29-19,.42-19,.42l-.75-84,18.13-.26L332,250.83l.91,2.61s-1.31,11.26-2.18,14.38C330.33,269.38,331.35,278.11,331.84,286.52Z" transform="translate(-21.82 -42.3)"/><path class="cls-34" d="M331.84,286.52l-1.24,16.32a1.37,1.37,0,0,1-.89.51c-1.39.16-3.93.3-6.89.41l-.61-29.9-8.39.77-9-1-.39-9.29,4.39-9.93s10.45,1.29,13.42.12,8.52-6.32,8.52-6.32l1.3,2.65.91,2.61s-1.31,11.26-2.18,14.38C330.33,269.38,331.35,278.11,331.84,286.52Z" transform="translate(-21.82 -42.3)"/><path class="cls-3" d="M316.27,293.34c-.13,5.55-1.16,43.62-1.16,43.62s-7.22-.39-11.74-.52-17.93-3.61-17.93-3.61,1.93-5.55,3.87-12c.95-3.19,3.26-15.85,5.36-27.85.6-3.45,1.19-6.84,1.71-9.94.4-2.33.77-4.5,1.09-6.4.77-4.56,1.26-7.55,1.26-7.55-1.9-5.79-4-14.64-5.84-22.85-2.39-10.82-4.23-20.51-4.23-20.51l9.23-5.55,8.32.52,11.42,33.59s-1,12.86-1.36,16c0,.37-.08.91-.1,1.57C316,276.69,316.38,288.47,316.27,293.34Z" transform="translate(-21.82 -42.3)"/><path class="cls-6" d="M309.27,302.63l-1.77,13.71s-9,1.94-9.82,1.74-2.37-5.61-2.37-6,1.84-9.87,1.84-9.87L296.08,312l1.84,5.13,8.71-1.65Z" transform="translate(-21.82 -42.3)"/><path class="cls-6" d="M300.24,301.63a41.52,41.52,0,0,1,7.55.78A14,14,0,0,0,300.24,301.63Z" transform="translate(-21.82 -42.3)"/><path class="cls-6" d="M306.47,287s-2.45,1.36-6.13,3.29c-1.51.79-3.66,1.78-5.67,2.67.6-3.45,1.19-6.84,1.71-9.94l8.8-2Z" transform="translate(-21.82 -42.3)"/><path class="cls-6" d="M317.63,254.29s-.55,7.34-1,12.27l-9.58,1.74-6.25-2.59-1.57-1.4-.13-8.26,8.52,2.58S317.31,255.15,317.63,254.29Z" transform="translate(-21.82 -42.3)"/><path class="cls-6" d="M300.53,269.41c0,.58-1.93,6.77-1.93,7.35l-1.13-.12c.77-4.56,1.26-7.55,1.26-7.55-1.9-5.79-4-14.64-5.84-22.85l.61-.87c2.08-3.13.94-9.77.85-10.54.34,1.18,4.84,17.37,5,17.93S300.53,268.83,300.53,269.41Z" transform="translate(-21.82 -42.3)"/><path class="cls-6" d="M298.66,219.53l-.77.65s3.35,11.81,4.45,13.23l1.23-.13-.39,1.09s9.37,17.13,14.46,19.92l-11.49-26.88Z" transform="translate(-21.82 -42.3)"/><path class="cls-3" d="M304.79,217.15l-6.63,2.15a32.07,32.07,0,0,0,5.35,12.52l2.68-.75-1.29,2.57s8.56,17.12,12.74,20.65c0,0-3.36-18.89-5.43-24.69S304.79,217.15,304.79,217.15Z" transform="translate(-21.82 -42.3)"/><path class="cls-3" d="M344.14,334.5a43.35,43.35,0,0,1-4.38,1.55c-2.58.78-11.49-.25-11.49-.25s-4.77-62.46-4.64-63.49,3.43-22.85,3.43-22.85l-.21-6.57L325.06,223v-.12l1.16,2.1h0c1.12,2.05,2.89,5.28,4.54,8.35.82,1.51,1.6,3,2.26,4.24,1.44,4.45,3.46,10.91,3.38,11.75-.13,1.25-3.27,21.76-3.47,23a.28.28,0,0,0,0,.06s5.16,20,5.68,23.74c.26,1.89,1.66,11.61,3,20.78l.24,1.62C343,327,344.14,334.5,344.14,334.5Z" transform="translate(-21.82 -42.3)"/><path class="cls-6" d="M338.89,298.18c-2.37.58-7.23,1.81-7.23,1.81l7.58.67C339.1,299.71,339,298.88,338.89,298.18Z" transform="translate(-21.82 -42.3)"/><path class="cls-3" d="M333.89,300h6.42l1.33,18.1-6.43-.84L332,300Z" transform="translate(-21.82 -42.3)"/><path class="cls-6" d="M336.4,249.34l-2.71,7-4.1,7.46-4.93,1.64c.13-1,2.4-16,2.4-16s5,1.37,5.86,1S336.4,249.34,336.4,249.34Z" transform="translate(-21.82 -42.3)"/><path class="cls-6" d="M327.06,249.46l-1.62-16.12-1-11.35.59,1,1.15,2h0l1.38,2.53a38.48,38.48,0,0,1,.48,3.94,40,40,0,0,1,.26,4C328.4,238.12,327.06,249.46,327.06,249.46Z" transform="translate(-21.82 -42.3)"/><path class="cls-3" d="M327.07,249.46s-3.48-13.17-5.71-24.09a19.41,19.41,0,0,0,.37-6l3,1s1.93,7.65,2.8,10.36l-1.26.68,1.17,2A46,46,0,0,1,327.07,249.46Z" transform="translate(-21.82 -42.3)"/><polygon class="cls-12" points="311.18 200.57 307.31 200.78 306.79 199.1 310.65 198.89 311.18 200.57"/><path class="cls-8" d="M297.68,276.33a34.8,34.8,0,0,0,4-2.76c.72-.78,1-1.41,1.16-1.36a1.34,1.34,0,0,1,1,1.6,24.67,24.67,0,0,1-1.31,2.37Z" transform="translate(-21.82 -42.3)"/><path class="cls-7" d="M309.18,276.7s-.39,4.77-.45,5.29-2.26,5-2.26,5-5.68-1-6-.9-4.77.45-4.77.45-4.78-3-6.39-5.42c-.71-1.08.23-2.46,1.51-3.66l0,0a23.51,23.51,0,0,1,3.76-2.77l.19.11.35.19a9.19,9.19,0,0,0,2,.92c.58.07,6.77-1,6.77-1Z" transform="translate(-21.82 -42.3)"/><path class="cls-8" d="M306.47,287s-5.68-1-6-.9-4.77.45-4.77.45-4.78-3-6.39-5.42c-.71-1.08.23-2.46,1.51-3.66l0,0,4-2.66.45-.31s0,.18-.1.5c-.31,1.52-1.27,6-2,7-.83,1.16,2.13,2.61,2.13,2.61l6.23.47Z" transform="translate(-21.82 -42.3)"/><path class="cls-3" d="M288.66,225.73s-17.17,19.38-19.61,21.93c0,0-.52,4.13-.52,5.55S280.15,279,286.6,285.08c0,0,6.71-3.74,8.64-10.58,0,0-12.51-16.13-14.58-20.9l12.23-7.36S293.31,231.66,288.66,225.73Z" transform="translate(-21.82 -42.3)"/><polygon class="cls-6" points="258.85 211.3 256.65 208.43 263.14 206.98 268.46 204.56 258.85 211.3"/><path class="cls-35" d="M308.14,216.26s2.2,5.66,7,7.92l-3,5.42s-6.77-6.13-7.42-12.45Z" transform="translate(-21.82 -42.3)"/><path class="cls-35" d="M321.36,225.37c-.21,1-.41,1.65-.41,1.65-1.6-1.79-5.77-2.84-5.77-2.84,2.21-1.72,4.13-6.26,4.13-6.26l2.37,1.07c0,.13,0,.26.05.4A19.41,19.41,0,0,1,321.36,225.37Z" transform="translate(-21.82 -42.3)"/><path class="cls-36" d="M314.27,224.41c-3.77-.2-5.51-1.65-6-3s-.13-5.15-.13-5.15a32.16,32.16,0,0,0,1-3.9c.09-.49.16-1,.21-1.47.22-2.45,9.61,1.91,9.61,1.91a14.41,14.41,0,0,0-.1,3.47,4,4,0,0,0,.49,1.65C320.27,219.47,318.05,224.6,314.27,224.41Z" transform="translate(-21.82 -42.3)"/><path class="cls-37" d="M318.82,216.27c-1.55,1.09-3.41,2-4.79,1.41-1.79-.76-3.74-3.44-4.93-5.32.09-.49.16-1,.21-1.47.22-2.45,9.61,1.91,9.61,1.91A14.41,14.41,0,0,0,318.82,216.27Z" transform="translate(-21.82 -42.3)"/><path class="cls-36" d="M306.21,198s.21,9.48,1.25,11,4.17,6.39,7.14,6.77,8.77-3.61,10.19-7,.52-4.78.91-8,1.79-7.51-.54-11.12-16.24-3.08-17.4.28A39.64,39.64,0,0,0,306.21,198Z" transform="translate(-21.82 -42.3)"/><path class="cls-36" d="M307.07,200.22s-1.93-1.94-2.9-1-.35,3.77.44,4.74a6.42,6.42,0,0,0,2.19,1.55Z" transform="translate(-21.82 -42.3)"/><path class="cls-25" d="M323.9,203.29a1,1,0,0,0-.15-.21,1.78,1.78,0,0,0-.32-.29,1.66,1.66,0,0,0-2.26.32.18.18,0,0,0,.25.25,1.2,1.2,0,0,1,1.1-.25l.15,0h0l.08,0,.13.08,0,0,.06,0,.11.1,0,.06,0,0,0,0,.05.07a1.3,1.3,0,0,0,.15.18.36.36,0,0,0,.37.07.32.32,0,0,0,.21-.31A.73.73,0,0,0,323.9,203.29Z" transform="translate(-21.82 -42.3)"/><path class="cls-25" d="M315.71,202.43a.87.87,0,0,0-.22-.31,1.64,1.64,0,0,0-.67-.4,2,2,0,0,0-.85-.08,2.6,2.6,0,0,0-.94.27.26.26,0,0,0,.13.49,4.85,4.85,0,0,1,1.42,0l.13,0c.06,0,0,0,0,0l.07,0,.12.07,0,0,.06.05a1.21,1.21,0,0,1,.19.2h0a.63.63,0,0,0,.11.12l.1.06a.2.2,0,0,0,.34-.15c0-.05,0-.11,0-.16A.51.51,0,0,0,315.71,202.43Z" transform="translate(-21.82 -42.3)"/><path class="cls-37" d="M318.88,206.31a1.76,1.76,0,0,1,0-.79,8.89,8.89,0,0,1,.26-.88,1.62,1.62,0,0,0,.11-.92.3.3,0,0,0-.53-.07,3.65,3.65,0,0,0-.23.73c-.08.25-.17.49-.24.74a2.31,2.31,0,0,0,0,1.47c.07.2.26.39.3.6a.63.63,0,0,1-.11.46,1.26,1.26,0,0,1-1.15.31.13.13,0,0,0-.09.21,1.21,1.21,0,0,0,2-1.15C319.14,206.76,319,206.56,318.88,206.31Z" transform="translate(-21.82 -42.3)"/><path class="cls-25" d="M324.34,200.73q-.3-.1-.6-.18a2.58,2.58,0,0,0-.68-.07,4.42,4.42,0,0,0-.63,0,1,1,0,0,0-.69.24c-.09.1-.1.31.05.37a.59.59,0,0,0,.34.06l.36,0a5.51,5.51,0,0,1,.57-.06h.61a4.42,4.42,0,0,1,.63,0C324.5,201.08,324.51,200.79,324.34,200.73Z" transform="translate(-21.82 -42.3)"/><path class="cls-25" d="M316.86,200.07a4.5,4.5,0,0,1-.45-.31,3.87,3.87,0,0,0-.43-.27c-.14-.08-.29-.17-.44-.24a1.15,1.15,0,0,0-.62-.18.37.37,0,0,0-.27.16.31.31,0,0,0,0,.31.75.75,0,0,0,.27.26l.16.07.08,0,.54.21a4.74,4.74,0,0,0,.5.15c.17.05.34.09.51.15S317,200.18,316.86,200.07Z" transform="translate(-21.82 -42.3)"/><path class="cls-21" d="M319.82,210.05c-.45.12-.88.3-1.34.4a4.51,4.51,0,0,1-1.42,0,2.68,2.68,0,0,1-2.2-1.21c-.1-.2-.45-.06-.37.16a3,3,0,0,0,2.36,1.68,4.65,4.65,0,0,0,1.66-.08,2.72,2.72,0,0,0,1.45-.73A.15.15,0,0,0,319.82,210.05Z" transform="translate(-21.82 -42.3)"/><path class="cls-3" d="M325.16,207.83s-.13.34-.37.86c-.61,1.37-2,4-3.66,5.31-2.35,1.77-5.12,3.05-7.12,2.61a7.8,7.8,0,0,1-3.16-2.54h0a24.26,24.26,0,0,1-2.82-3.91s2.91-2.58,3.27-3.74c0,0,5.2-1.77,8.71-.89A13.47,13.47,0,0,1,325.16,207.83Z" transform="translate(-21.82 -42.3)"/><path class="cls-3" d="M311.05,206.9s-1.79-4.2-4.48-5.55l.22-.44c2.86,1.42,4.65,5.62,4.73,5.8Z" transform="translate(-21.82 -42.3)"/><path class="cls-3" d="M308,210.16a23.59,23.59,0,0,1-2.49-6.13l.49-.13a19.36,19.36,0,0,0,2.79,6.09Z" transform="translate(-21.82 -42.3)"/><path class="cls-10" d="M326.07,199.08a9.75,9.75,0,0,0-4.7-3.52h0s-.05,0-.08,0a7.08,7.08,0,0,0-2.36-.43,10.66,10.66,0,0,0-8.47,4c-2,2.65-3.09,9.86-3.09,9.86a8.94,8.94,0,0,1-4.42-4.86v0a4.43,4.43,0,0,1-.2-.45,23.64,23.64,0,0,1-1.2-10.8c.43-2.33,1.22-7.36,7.5-10.28a16.21,16.21,0,0,1,5.57-.83,13.49,13.49,0,0,1,5.68,1.67,16.07,16.07,0,0,1,3.94,3.12l0,0a11.73,11.73,0,0,1,2.8,6.81C327.39,196.16,326.14,198.38,326.07,199.08Z" transform="translate(-21.82 -42.3)"/><path class="cls-23" d="M321.28,195.53a7.08,7.08,0,0,0-2.36-.43,10.66,10.66,0,0,0-8.47,4c-2,2.65-3.09,9.86-3.09,9.86s0-4.93.54-6.67,3.56-5.68,5-6.39a6,6,0,0,1,3.25-.94A9.14,9.14,0,0,1,321.28,195.53Z" transform="translate(-21.82 -42.3)"/><path class="cls-23" d="M313.78,182.42c-2.82.05-5.76,2.23-5.76,2.23a4.41,4.41,0,0,1,.79,1.74c.1.82-1.89,2.27-3,2.56a.92.92,0,0,1-1.2-.82s-2.18,4-2.42,5.85.66,9.65.71,10.1a4.43,4.43,0,0,1-.2-.45,23.64,23.64,0,0,1-1.2-10.8c.43-2.33,1.22-7.36,7.5-10.28a16.21,16.21,0,0,1,5.57-.83,13.49,13.49,0,0,1,5.68,1.67A32,32,0,0,0,313.78,182.42Z" transform="translate(-21.82 -42.3)"/><path class="cls-11" d="M326.07,199.08a8.89,8.89,0,0,0-2.36-3.26l1.45-.49.44-1.35a14.22,14.22,0,0,0-.05-3.53,30.68,30.68,0,0,0-1.58-4l.26.07,0,0a11.73,11.73,0,0,1,2.8,6.81C327.39,196.16,326.14,198.38,326.07,199.08Z" transform="translate(-21.82 -42.3)"/><path class="cls-22" d="M324.79,208.69c-.61,1.37-2,4-3.66,5.31-2.35,1.77-5.12,3.05-7.12,2.61a7.8,7.8,0,0,1-3.16-2.54,20.81,20.81,0,0,0,4,1.16,8.51,8.51,0,0,0,4-1.75,16.36,16.36,0,0,0,3-3.77,3.27,3.27,0,0,0-.15-1.65L320,206.23a16.39,16.39,0,0,1,4,1.69A5,5,0,0,1,324.79,208.69Z" transform="translate(-21.82 -42.3)"/><path class="cls-12" d="M183.5,423.28c0,.38-.9,9.42-1,12.38s-.26,7.87.9,8.78,9.55,1,11.36.13.9-8,.77-10.2-1.29-11.09-1.29-11.09Z" transform="translate(-21.82 -42.3)"/><path class="cls-22" d="M184.21,424.44c0,.29-.77,11.8-.58,13.06s10.07,1.55,10.55.78-.87-13.75-.87-13.75Z" transform="translate(-21.82 -42.3)"/><path class="cls-12" d="M172.69,441.47,172.6,443s-4.16,0-4.36-.29.2-7.16.2-7.16-3.39,5.23-5,6.19-12.77,1.16-13.84.49-1.64-2.71-.67-3.78,5.22-2,6.09-2.42,4.26-6.67,5.91-8.42a7.7,7.7,0,0,0,1.74-4.45l7.44.53,2.14.15C172.31,424.15,172.69,441.47,172.69,441.47Z" transform="translate(-21.82 -42.3)"/><path class="cls-22" d="M170.07,423.71c-.06.89-.46,5.74-2.22,8.38-1.93,2.9-9.19,6-12.87,4,.87-.38,4.26-6.67,5.91-8.42a7.7,7.7,0,0,0,1.74-4.45Z" transform="translate(-21.82 -42.3)"/><path class="cls-38" d="M174.73,369.28s.58,13,.19,17-1.55,38.13-1.55,38.13a17.8,17.8,0,0,1-2.05.28,50.44,50.44,0,0,1-10.34-.67c0-3.87-1.16-51.29-1.16-51.29s-4.06-28.06-5-37.55a85.33,85.33,0,0,1,0-15.44c.19-2.18.38-3.52.38-3.52l24,1Z" transform="translate(-21.82 -42.3)"/><path class="cls-39" d="M174.73,369.28s.58,13,.19,17-1.55,38.13-1.55,38.13a17.8,17.8,0,0,1-2.05.28l1.47-15.57-1.16-36.58-3.29-.77,2.32-2.71A83.56,83.56,0,0,0,173,360c.2-2.13-2.13-34.65-2.13-34.65l-16-5.57c.19-2.18.38-3.52.38-3.52l24,1Z" transform="translate(-21.82 -42.3)"/><path class="cls-38" d="M199.69,343c-.38,6-2.9,23.22-2.9,23.22s0,8.27-.08,18.59c-.07,15.7-.19,37.16-.31,40.31,0,0-8.71.78-13.93-.38,0,0-3.49-55-3.49-57.94s-6.19-50.32-6.19-50.32l6.84-.45,19.48-1.29C198.92,315.28,200.08,337,199.69,343Z" transform="translate(-21.82 -42.3)"/><path class="cls-39" d="M199.69,343c-.38,6-2.9,23.22-2.9,23.22s0,8.27-.08,18.59l-1.27-19.36,1.54-23-1.39-18.87-20.28-.3-1.55-5.41,5.87-1.81,19.48-1.29C198.92,315.28,200.08,337,199.69,343Z" transform="translate(-21.82 -42.3)"/><path class="cls-7" d="M161.56,282.89a37.51,37.51,0,0,1-1.05,5.11h0a108.66,108.66,0,0,1-4.87,13.6s-.46-1.08-.94-2.28a26,26,0,0,1-.9-2.51,1.79,1.79,0,0,1-.1-.5,41.43,41.43,0,0,1,1.27-4.92l.15-.5s0-1.06-.1-2.72c-.21-5.75-.67-18.73-.67-19.73,0-.72,0-4.5.08-7.7,0-2.52.05-4.69.05-4.69l6.84.65S162.47,275.54,161.56,282.89Z" transform="translate(-21.82 -42.3)"/><path class="cls-8" d="M160.5,288a108.66,108.66,0,0,1-4.87,13.6s-.46-1.08-.94-2.28a13.44,13.44,0,0,0,.33-2c.17-1.71.75-5.32.75-5.32l-.81-.58.15-.5s0-1.06-.1-2.72Z" transform="translate(-21.82 -42.3)"/><path class="cls-39" d="M162.08,258.89c-.5.06-1.09.09-1.7.1l-.7,31.62a14.47,14.47,0,0,1-3.58.05,5.49,5.49,0,0,1-2-.53c-1.54-12-1.46-36.62-.82-42.32,0,0,0-.05,0-.07.54-5,1.42-10.56,2.75-13.75a18.13,18.13,0,0,1,3.07-5,15.42,15.42,0,0,1,5.31-4s.07,2.32.11,5.74C164.64,240.3,164.56,258.6,162.08,258.89Z" transform="translate(-21.82 -42.3)"/><path class="cls-38" d="M154.61,263.65c.34,2.11,1.24,21.63,1.49,27a5.49,5.49,0,0,1-2-.53c-1.54-12-1.46-36.62-.82-42.32,0,0,0-.05,0-.07.54-5,1.42-10.56,2.75-13.75a18.13,18.13,0,0,1,3.07-5c-1.31,3.7-3.77,10.73-4,11.67C154.87,242,154.23,261.19,154.61,263.65Z" transform="translate(-21.82 -42.3)"/><path class="cls-38" d="M202,316.05a179.9,179.9,0,0,1-21.68,3.36c-9.42.64-28-1.94-28-1.94s.91-8.77,1.81-11.48,6.32-34.71,6.32-34.71-6.58-20.65-6.32-21.55c.62-2.17,2.45-8.77,3.36-10.58s4.77-12.9,7-14.19,7.91-2.42,7.91-2.42l14,.13,8.13,2s.08,12.79-.28,19.87a31.14,31.14,0,0,1-.37,4c-.77,3.74-2.45,21.29-2.45,23.74,0,1.38,3.36,15.08,6.29,26.78C199.93,308.17,202,316.05,202,316.05Z" transform="translate(-21.82 -42.3)"/><path class="cls-39" d="M192.14,297.6l4.65,6.58-23.35-1.29-8.39-30.58-4.65-1s-6.58-20.65-6.32-21.55a14.62,14.62,0,0,0,10.71,1l4.26,4.65-.39-5s8.65,3,11.87,3,6.2-2.45,6.84-3.87,4-12.13,4-12.13l2.82,7.23a31.14,31.14,0,0,1-.37,4c-.77,3.74-2.45,21.29-2.45,23.74,0,1.38,3.36,15.08,6.29,26.78Z" transform="translate(-21.82 -42.3)"/><rect class="cls-3" x="179.08" y="237.66" width="5.23" height="1.65" transform="translate(-0.89 -56.88) rotate(4.88)"/><polygon class="cls-24" points="177.69 246.16 152.07 257.15 147.16 245.7 146.05 243.11 135.85 219.32 161.46 208.34 170.51 229.44 175.39 240.8 177.69 246.16"/><path class="cls-40" d="M176.79,287.28c1.42-.9,7.74-3.23,11.35-3.36,1.94-.06,5.85-.47,9.06-.82l-4.88-11.36-23.4,11-1.06,2.65L169,288C171.62,288,175.76,287.93,176.79,287.28Z" transform="translate(-21.82 -42.3)"/><path class="cls-7" d="M207.44,266.31c-.1.58-1.75,4.36-4.17,5.71-.93.52-4.78,2.17-9.18,4-7.05,2.94-15.49,6.36-15.49,6.36h0c-.08.13-.69,1.15-1.34,2.1a11,11,0,0,1-1.07,1.37c-.87.87-6.68,2.71-8.71,2.23a4.64,4.64,0,0,1-2.15-1.65,16.45,16.45,0,0,1-1.56-2.19l-.26-.45a9.14,9.14,0,0,1-.58-1.13v-.23a4.5,4.5,0,0,1,.18-.83,8.6,8.6,0,0,1,.79-1.94l2.61-1.07a9.32,9.32,0,0,1-3-.29,2.68,2.68,0,0,1-1.17-1.89h0a.24.24,0,0,1,.3-.23,53.27,53.27,0,0,0,6.87-.68c.75-.18,4.78,1.27,5,1.35h0s7.93-3,11.22-5.84,10.07-7.52,10.07-7.52-1.32-4.4-2.09-7.05c-.3-1.08-.52-1.86-.52-1.95l11-2.22s.48,1.95,1.07,4.41C206.26,260.66,207.5,266,207.44,266.31Z" transform="translate(-21.82 -42.3)"/><path class="cls-9" d="M174.53,276.86s-4.63-1-5.05-.89-4.35.55-4.9.55-2.09.39-2.25-.1h0a.24.24,0,0,1,.3-.23,53.27,53.27,0,0,0,6.87-.68c.75-.18,4.78,1.27,5,1.35Z" transform="translate(-21.82 -42.3)"/><path class="cls-9" d="M166.85,280.71l-1.92.84-2,1.12v-.23a4.5,4.5,0,0,1,.18-.83Z" transform="translate(-21.82 -42.3)"/><path class="cls-8" d="M167.17,283.55c-.41.09-2.84.61-3.41.7l-.26-.45a15,15,0,0,1,1.5,0A12.88,12.88,0,0,0,167.17,283.55Z" transform="translate(-21.82 -42.3)"/><path class="cls-8" d="M196.11,272.7c-1.06.48-17.61,8.51-17.61,8.51l-2.81,3.59.08,0a11.91,11.91,0,0,1-1.48,1.08c-.87.44-6.53,2-7,1.79a2.58,2.58,0,0,1-.72-.63l1.69-.77-1.45.19h-1.52a4.64,4.64,0,0,0,2.15,1.65c2,.48,7.84-1.36,8.71-2.23a11.56,11.56,0,0,0,1.07-1.37h0l.37-.56.07-.09c.08-.13.15-.25.23-.36l.67-1.09h0S187,279,194.09,276l9-5.73C202.72,270.4,197.15,272.23,196.11,272.7Z" transform="translate(-21.82 -42.3)"/><path class="cls-38" d="M205.35,270.87c-2.08,2.13-26.27,13-26.27,13a19.29,19.29,0,0,0-.75-2.39,44.35,44.35,0,0,0-2.46-5.31c6-3.09,19.95-12.7,19.95-12.7a75.05,75.05,0,0,1-2.29-7.61c-1.41-5.45-2.67-11.32-2.73-11.6h0c-.4-5.08-.6-10.42.06-12.75,1.42-5,3.61-6.83,3.61-6.83a34.3,34.3,0,0,1,5.42,6.71,19.22,19.22,0,0,1,1.47,3.42v0s0,0,0,0a113.27,113.27,0,0,1,3.31,13l.06.34c.48,2.38.81,4.38.93,5.5v0c.67,4.15,1.95,10.42,2,12.11C207.78,268.84,207.42,268.75,205.35,270.87Z" transform="translate(-21.82 -42.3)"/><path class="cls-39" d="M205.35,270.87c-2.08,2.13-26.27,13-26.27,13a19.29,19.29,0,0,0-.75-2.39c1.5-1,10.91-4.49,13.86-6.47,3.2-2.14,12.1-6.91,12.68-7.81s-.4-11.37-.93-16.59c-.5-5.06-2.45-15.15-2.57-15.78,0,0,0,0,0,0a113.27,113.27,0,0,1,3.31,13l.06.34c.48,2.38.81,4.38.93,5.5v0c.67,4.15,1.95,10.42,2,12.11C207.78,268.84,207.42,268.75,205.35,270.87Z" transform="translate(-21.82 -42.3)"/><path class="cls-3" d="M168.38,209.15c0-.23-1-5.56-1.11-7.16l.5,0c.11,1.56,1.18,7.08,1.19,7.14Z" transform="translate(-21.82 -42.3)"/><path class="cls-20" d="M186.34,222.67c-3.39,6.19-11.61,11.06-11.61,11.06-1.94-4.23-2.42-11.19-2.42-11.19l0-.07a7.64,7.64,0,0,0,.65-1.87l.09-.41a17.2,17.2,0,0,0,.3-2.45,19.93,19.93,0,0,0,0-2.24,39.59,39.59,0,0,1,5.41-1.86c2.88-.72,5.83-.9,5.88,1.38,0,.21,0,.41,0,.61s0,.58.07.85a20.56,20.56,0,0,0,.68,3.69,15.28,15.28,0,0,0,.87,2.46Z" transform="translate(-21.82 -42.3)"/><path class="cls-3" d="M186.34,222.67c-3.39,6.19-11.61,11.06-11.61,11.06-1.94-4.23-2.42-11.19-2.42-11.19l0-.07c.1-.26.46-1.18.65-1.87,0-.15.07-.29.09-.41s0,0,0,0,7.09,1.87,12.37,0l.87,2.46Z" transform="translate(-21.82 -42.3)"/><path class="cls-6" d="M178.4,221.5a3.56,3.56,0,0,0,1.46-.51,27,27,0,0,1-3.41-.22A3.21,3.21,0,0,0,178.4,221.5Z" transform="translate(-21.82 -42.3)"/><path class="cls-21" d="M184.78,216.48c-1.11,1.32-4.25,4.87-6.38,5-1.55.12-3.6-2-5-3.76a19.93,19.93,0,0,0,0-2.24,39.59,39.59,0,0,1,5.41-1.86,31.61,31.61,0,0,1,5.9,2C184.73,215.92,184.75,216.21,184.78,216.48Z" transform="translate(-21.82 -42.3)"/><path class="cls-20" d="M167.66,197.7s.58,12.09,1.36,13.83,7.16,7,8.81,7.55,7-2.51,9.09-5.8,2.23-7.07,2.52-11,1.26-8.51-1.36-10-13.06-3.49-17.32-1.75S167.66,197.7,167.66,197.7Z" transform="translate(-21.82 -42.3)"/><path class="cls-24" d="M173.89,204a.69.69,0,0,0-.24-.24.62.62,0,0,0-.32-.09.63.63,0,0,0-.33.09l0,0h0a.75.75,0,0,0-.25.25l0,0a.67.67,0,0,0-.09.34l0,.18a.58.58,0,0,0,.18.3.49.49,0,0,0,.21.14.63.63,0,0,0,.27.06.58.58,0,0,0,.26-.06.52.52,0,0,0,.22-.14.64.64,0,0,0,.17-.3l0-.05a.6.6,0,0,0,0-.23A.72.72,0,0,0,173.89,204Z" transform="translate(-21.82 -42.3)"/><path class="cls-24" d="M182.31,203.94l-.08-.19-.13-.17a.56.56,0,0,0-.26-.17.41.41,0,0,0-.21,0,.58.58,0,0,0-.32,0l-.2.08-.16.13a.66.66,0,0,0-.15.22l0-.05,0,0v0a.78.78,0,0,0-.1.39.65.65,0,0,0,0,.2.79.79,0,0,0,.2.34.44.44,0,0,0,.15.12.76.76,0,0,0,.25.06s.08,0,.11,0h.22a.63.63,0,0,0,.3-.1l.17-.13.13-.16a.55.55,0,0,0,.09-.3A.62.62,0,0,0,182.31,203.94Z" transform="translate(-21.82 -42.3)"/><path class="cls-15" d="M174.94,201.35c-.16-.33-.67-.3-1-.29a8,8,0,0,0-1,0,4.73,4.73,0,0,0-1.85.63c-.19.11-.06.45.16.37a6.6,6.6,0,0,1,1.75-.38,3.1,3.1,0,0,1,.86,0l.43.1a.64.64,0,0,0,.57-.1A.33.33,0,0,0,174.94,201.35Z" transform="translate(-21.82 -42.3)"/><path class="cls-15" d="M183.58,201.47a3.56,3.56,0,0,0-1.52-.51,3.3,3.3,0,0,0-.77,0l-.43.07-.19.05-.09,0-.05,0a.42.42,0,1,0,.29.72,1.56,1.56,0,0,1,.58-.22,2.74,2.74,0,0,1,.64-.08,3,3,0,0,1,1.34.26A.2.2,0,0,0,183.58,201.47Z" transform="translate(-21.82 -42.3)"/><path class="cls-15" d="M177.9,209.85a2.16,2.16,0,0,1-1.34-.56.74.74,0,0,1-.19-.53c0-.22.19-.3.37-.4a1.92,1.92,0,0,0,.49-.37,1.28,1.28,0,0,0,.27-.72c0-.32.07-.63.08-.94a2.45,2.45,0,0,0-.1-.93.4.4,0,0,0-.76,0,10.14,10.14,0,0,0-.07,2c0,.23-.19.34-.36.49a1.51,1.51,0,0,0-.4.57,1.23,1.23,0,0,0,.4,1.28,2.69,2.69,0,0,0,1.56.48C178.06,210.23,178.1,209.89,177.9,209.85Z" transform="translate(-21.82 -42.3)"/><path class="cls-21" d="M179.93,211.88a4.26,4.26,0,0,1-.82.36,2.38,2.38,0,0,1-.88.09,7.45,7.45,0,0,1-.84-.09,3.15,3.15,0,0,1-.44-.11,3.39,3.39,0,0,0-.45-.15.38.38,0,0,0-.36.63,2,2,0,0,0,1,.47,2.32,2.32,0,0,0,1.14,0,4.17,4.17,0,0,0,1-.35,2.6,2.6,0,0,0,.83-.64A.14.14,0,0,0,179.93,211.88Z" transform="translate(-21.82 -42.3)"/><path class="cls-15" d="M178.19,214.51a.29.29,0,0,0-.12-.07h-.35a3.11,3.11,0,0,0-.44.07.26.26,0,0,0-.19.32.28.28,0,0,0,.33.19l.13,0,.26,0H178a.29.29,0,0,0,.16,0l.08,0a.22.22,0,0,0,.12-.2A.24.24,0,0,0,178.19,214.51Z" transform="translate(-21.82 -42.3)"/><path class="cls-20" d="M188,204.89s2.13-2.52,3.49-.78-3.1,6.29-3.1,6.29Z" transform="translate(-21.82 -42.3)"/><path class="cls-3" d="M185.91,210.52l-.45-.23c.1-.2,2.47-4.71,4.24-6.14l.31.39C188.33,205.9,185.93,210.47,185.91,210.52Z" transform="translate(-21.82 -42.3)"/><path class="cls-3" d="M186.88,212.08l-.21-.45.1.23-.1-.23s1.44-.68,3-3.48l.44.24C188.45,211.36,186.94,212.06,186.88,212.08Z" transform="translate(-21.82 -42.3)"/><path class="cls-3" d="M168.38,209.15a21.47,21.47,0,0,1,9.68-2c5.28.25,9.92,4.07,9.92,4.07a23.7,23.7,0,0,1-4.3,5.91,9.92,9.92,0,0,1-6.6,2.69c-1.76-.1-5.53-3.33-6.75-5.38A22,22,0,0,1,168.38,209.15Z" transform="translate(-21.82 -42.3)"/><path class="cls-10" d="M193.52,203c-.76,4.5-5.25,8-5.53,8.2,1.06-2.07,2.11-7.3,1.14-8.72-.76-1.12-1.85-3.4-4.17-4.75a7.44,7.44,0,0,0-2.15-.86c-3.87-.9-8.07-1.48-12.2,1.7a6.85,6.85,0,0,0-2.83,7.17q-.24-.62-.42-1.23v0c-2.65-8.62.27-16.59,6-19.43,4-2,9.11-1.54,13,.18a15.27,15.27,0,0,1,2.87,1.62,10.62,10.62,0,0,1,1.94,1.75C194.74,192.66,194.29,198.35,193.52,203Z" transform="translate(-21.82 -42.3)"/><path class="cls-22" d="M175.45,208.15a17.64,17.64,0,0,1,6.06,1c2.36,1,5.36,2.4,5.36,2.4s-2.37,4.84-4.79,6.1a14,14,0,0,1-4.64,1.45,10.49,10.49,0,0,0,2.41-2.81c.83-1.55,1.75-3.82.49-5.08A26.42,26.42,0,0,0,175.45,208.15Z" transform="translate(-21.82 -42.3)"/><path class="cls-11" d="M193.52,203c-.76,4.5-5.25,8-5.53,8.2,1.06-2.07,2.11-7.3,1.14-8.72-.76-1.12-1.85-3.4-4.17-4.75a26,26,0,0,1,4.78,1.15c1.39.64,1.47.39.33-1.87s-1.62-3.23-.22-3.65,3.24.59,1.87-1.92c-.76-1.39-1.71-3.22-2.4-4.58a10.62,10.62,0,0,1,1.94,1.75C194.74,192.66,194.29,198.35,193.52,203Z" transform="translate(-21.82 -42.3)"/><path class="cls-23" d="M186.45,185.24a9.46,9.46,0,0,0-2.77-.41c-1.21.19-4.74.11-7.23.83a25.36,25.36,0,0,0-5.42,2.63s-2.55,2.94-3.13,5.16-.54,10.56-.54,11c-2.65-8.62.27-16.59,6-19.43C177.45,183.08,182.51,183.52,186.45,185.24Z" transform="translate(-21.82 -42.3)"/></svg>