<svg width="234" height="421" viewBox="0 0 234 421" fill="none" xmlns="http://www.w3.org/2000/svg">
<path d="M53.7601 230.348L28.0505 282.676C26.1461 286.658 22.8566 288.433 18.1821 288L12.0794 287.481C8.96303 287.394 6.92876 286.225 5.97656 283.975C5.02435 281.724 5.19747 279.517 6.49594 277.353L95.0514 106.604C98.7737 99.5059 103.665 95.9567 109.724 95.9567L120.372 95.697C123.574 95.697 126.085 96.7791 127.903 98.9432C129.72 101.107 130.5 104.31 130.24 108.552L120.891 282.157C120.718 286.052 118.078 288 112.97 288L103.881 287.74C99.5528 287.74 97.5185 285.36 97.7782 280.599L101.154 230.348H53.7601ZM63.239 211.131H102.453L108.555 118.68L63.239 211.131Z" fill="black"/>
<path d="M125.72 95.9567C130.394 95.9567 132.428 98.3805 131.822 103.228L121.045 264.628L201.42 101.021C203.325 97.0388 206.701 95.2642 211.548 95.697L217.391 96.2164C223.278 96.6492 225.139 100.025 222.975 106.344L134.16 277.353C130.784 284.191 125.46 287.74 118.188 288L110.008 288.26C106.459 288.346 103.732 287.048 101.828 284.364C99.9234 281.681 99.101 278.088 99.3607 273.587L108.71 101.8C109.142 97.9044 111.783 95.9567 116.63 95.9567H125.72Z" fill="black"/>
<path d="M16.792 337.144L16.984 335.272C18.616 335.144 19.736 334.952 20.344 334.696C20.952 334.44 21.256 334.024 21.256 333.448C21.256 332.808 21.112 332.04 20.824 331.144L19.24 325.912C18.472 325.88 16.808 325.864 14.248 325.864C12.712 325.864 10.968 325.992 9.016 326.248L7.24 331.24C6.952 332.104 6.808 332.728 6.808 333.112C6.808 333.816 7.032 334.328 7.48 334.648C7.928 334.936 8.664 335.08 9.688 335.08H12.424L12.52 335.272L12.232 337.336C11.848 337.304 10.968 337.24 9.592 337.144C8.216 337.048 6.872 337 5.56 337C4.376 337 3.272 337.016 2.248 337.048C1.256 337.08 0.6 337.112 0.28 337.144L0.664 334.888C1.56 334.792 2.28 334.488 2.824 333.976C3.368 333.432 3.896 332.504 4.408 331.192L13.768 306.664L16.792 305.848H17.176C17.368 306.616 17.848 308.392 18.616 311.176C19.416 313.96 20.376 317.256 21.496 321.064C22.648 324.872 23.752 328.376 24.808 331.576C25.192 332.76 25.704 333.592 26.344 334.072C26.984 334.552 28.008 334.856 29.416 334.984L29.512 335.176L29.176 337.144C28.792 337.144 28.088 337.112 27.064 337.048C26.072 337.016 25.08 337 24.088 337C22.552 337 21.064 337.064 19.624 337.192C18.216 337.32 17.32 337.416 16.936 337.48L16.792 337.144ZM14.104 323.896C15.256 323.896 16.744 323.816 18.568 323.656L14.776 311.08H14.44L9.88 323.896H14.104ZM32.4138 320.344C32.4138 318.616 31.8218 317.752 30.6378 317.752C30.4138 317.752 30.1738 317.784 29.9178 317.848C29.6618 317.88 29.5018 317.912 29.4378 317.944L29.6298 316.168C30.8778 315.976 32.2218 315.72 33.6618 315.4C35.1018 315.048 36.0458 314.824 36.4938 314.728L36.7818 315.304C36.4618 316.136 36.1738 318.024 35.9178 320.968C35.6618 323.912 35.5338 326.776 35.5338 329.56C35.5338 332.696 36.8138 334.264 39.3738 334.264C40.3338 334.264 41.2298 334.04 42.0618 333.592C42.8938 333.112 43.9338 332.424 45.1818 331.528V320.392C45.1818 319.432 45.0058 318.76 44.6538 318.376C44.3018 317.992 43.6778 317.8 42.7818 317.8L41.6298 317.848L41.8218 316.12C43.2298 315.928 44.7018 315.672 46.2378 315.352C47.7738 315.032 48.7658 314.824 49.2138 314.728L49.5018 315.304C49.2138 316.04 48.9578 318.04 48.7338 321.304C48.5418 324.568 48.4458 328.12 48.4458 331.96C48.4458 332.664 48.6218 333.208 48.9738 333.592C49.3258 333.976 49.8058 334.168 50.4138 334.168C50.8618 334.168 51.2938 334.088 51.7098 333.928C52.1578 333.736 52.5098 333.544 52.7657 333.352C53.0538 333.16 53.2298 333.032 53.2938 332.968L53.9658 333.736C53.8378 333.928 53.5338 334.328 53.0538 334.936C52.6058 335.544 52.0618 336.136 51.4218 336.712C50.8138 337.288 50.2698 337.576 49.7898 337.576C47.1978 337.576 45.7738 336.28 45.5178 333.688L45.2778 333.592C43.7418 334.776 42.3498 335.736 41.1018 336.472C39.8858 337.208 39.0538 337.576 38.6058 337.576C36.5578 337.576 34.9738 337.096 33.8538 336.136C32.7658 335.176 32.2218 333.8 32.2218 332.008L32.4138 320.344ZM63.9505 337.576C61.7745 337.576 60.2385 337.144 59.3425 336.28C58.4465 335.384 57.9985 333.88 57.9985 331.768V319.96C57.9985 319.096 57.8065 318.488 57.4225 318.136C57.0385 317.784 56.3185 317.592 55.2625 317.56L55.0705 317.272L55.3105 315.832C56.2385 315.384 57.1345 314.84 57.9985 314.2C58.8945 313.528 59.6145 312.952 60.1585 312.472C60.7345 311.96 61.1025 311.624 61.2625 311.464L62.2225 311.848C62.1905 312.008 62.1425 312.392 62.0785 313C62.0145 313.608 61.9345 314.424 61.8385 315.448L68.8945 315.304L69.0385 315.448L68.6065 317.992L61.6465 317.848C61.4225 321.368 61.3105 325.368 61.3105 329.848C61.3105 331.48 61.5825 332.632 62.1265 333.304C62.7025 333.976 63.6785 334.312 65.0545 334.312C65.5345 334.312 66.0145 334.248 66.4945 334.12C66.9745 333.992 67.3745 333.864 67.6945 333.736C68.0145 333.576 68.2225 333.48 68.3185 333.448L68.7985 334.696C68.6065 334.856 68.1905 335.16 67.5505 335.608C66.9425 336.056 66.2705 336.504 65.5345 336.952C64.8305 337.368 64.3025 337.576 63.9505 337.576ZM80.9463 337.576C79.1223 337.576 77.5063 337.128 76.0983 336.232C74.6903 335.336 73.5863 334.088 72.7863 332.488C72.0183 330.856 71.6343 329 71.6343 326.92C71.6343 324.68 72.1143 322.632 73.0742 320.776C74.0663 318.888 75.4103 317.416 77.1063 316.36C78.8023 315.272 80.6903 314.728 82.7703 314.728C84.5623 314.728 86.1623 315.176 87.5703 316.072C89.0103 316.968 90.1143 318.232 90.8823 319.864C91.6823 321.464 92.0823 323.304 92.0823 325.384C92.0823 327.624 91.5863 329.688 90.5943 331.576C89.6343 333.432 88.3063 334.904 86.6103 335.992C84.9143 337.048 83.0263 337.576 80.9463 337.576ZM82.2903 335.224C84.0823 335.224 85.5063 334.504 86.5623 333.064C87.6183 331.592 88.1463 329.608 88.1463 327.112C88.1463 325.224 87.8583 323.544 87.2823 322.072C86.7063 320.568 85.8903 319.4 84.8343 318.568C83.8103 317.736 82.6423 317.32 81.3303 317.32C79.5383 317.32 78.1143 318.056 77.0583 319.528C76.0023 321 75.4743 323 75.4743 325.528C75.4743 327.416 75.7623 329.096 76.3383 330.568C76.9143 332.04 77.7143 333.192 78.7383 334.024C79.7623 334.824 80.9463 335.224 82.2903 335.224ZM115.712 337.816C115.232 336.216 114.144 332.696 112.448 327.256C110.784 321.816 109.104 316.488 107.408 311.272C107.12 310.344 106.624 309.672 105.92 309.256C105.216 308.808 104.24 308.568 102.992 308.536L102.896 308.344L103.232 306.28C103.648 306.28 104.416 306.312 105.536 306.376C106.688 306.408 107.776 306.424 108.8 306.424C109.856 306.424 111.184 306.36 112.784 306.232C114.416 306.072 115.488 305.96 116 305.896L116.144 306.232L115.952 308.104C114.224 308.232 113.072 308.424 112.496 308.68C111.952 308.936 111.68 309.416 111.68 310.12C111.68 310.76 112.528 314.088 114.224 320.104C115.92 326.088 117.088 330.168 117.728 332.344H118.16C123.472 318.648 126.128 311.288 126.128 310.264C126.128 309.592 125.872 309.112 125.36 308.824C124.848 308.504 124 308.344 122.816 308.344H120.32L120.224 308.152L120.512 306.088C120.928 306.12 121.84 306.184 123.248 306.28C124.688 306.376 126.064 306.424 127.376 306.424C128.56 306.424 129.648 306.408 130.64 306.376C131.664 306.344 132.336 306.312 132.656 306.28L132.272 308.536C131.28 308.568 130.592 308.728 130.208 309.016C129.824 309.304 129.456 309.912 129.104 310.84L118.784 336.76L115.712 337.816ZM146.637 337.576C144.045 337.576 142.621 336.28 142.365 333.688L142.173 333.64C141.021 334.792 139.965 335.704 139.005 336.376C138.077 337.048 137.373 337.384 136.893 337.384C135.101 337.384 133.629 336.824 132.477 335.704C131.325 334.584 130.749 333.16 130.749 331.432C130.749 330.504 130.973 329.688 131.421 328.984C131.901 328.28 132.525 327.816 133.293 327.592L142.413 325.096L142.461 322.984C142.461 321.384 142.093 320.136 141.357 319.24C140.621 318.344 139.581 317.896 138.237 317.896C137.341 317.896 136.397 318.104 135.405 318.52C134.413 318.936 133.437 319.528 132.477 320.296L132.237 320.152L131.661 318.088C133.165 317.224 134.669 316.456 136.173 315.784C137.709 315.08 138.813 314.728 139.485 314.728C141.565 314.728 143.197 315.272 144.381 316.36C145.565 317.448 146.157 318.968 146.157 320.92C146.157 321.624 146.045 323.064 145.821 325.24C145.469 328.76 145.293 331 145.293 331.96C145.293 332.664 145.469 333.208 145.821 333.592C146.173 333.976 146.653 334.168 147.261 334.168C147.773 334.168 148.301 334.056 148.845 333.832C149.389 333.576 149.821 333.288 150.141 332.968L150.813 333.736C150.333 334.536 149.709 335.32 148.941 336.088C148.205 336.824 147.437 337.32 146.637 337.576ZM137.709 334.12C138.317 334.12 139.021 333.912 139.821 333.496C140.653 333.048 141.405 332.488 142.077 331.816L142.317 326.92L135.789 328.888C134.861 329.176 134.397 329.848 134.397 330.904C134.397 331.832 134.701 332.6 135.309 333.208C135.949 333.816 136.749 334.12 137.709 334.12ZM153.445 335.608C154.405 335.352 155.093 334.984 155.509 334.504C155.925 333.992 156.133 333.32 156.133 332.488V320.296C156.133 318.568 155.541 317.704 154.357 317.704C154.133 317.704 153.893 317.736 153.637 317.8C153.381 317.832 153.221 317.864 153.157 317.896L153.349 316.12C154.693 315.928 156.069 315.672 157.477 315.352C158.917 315.032 159.845 314.824 160.261 314.728L160.501 315.304C160.213 315.976 159.957 318.04 159.733 321.496C159.509 324.92 159.397 328.52 159.397 332.296C159.397 333.224 159.525 333.912 159.781 334.36C160.037 334.776 160.469 334.984 161.077 334.984C161.429 334.984 161.765 334.968 162.085 334.936C162.405 334.904 162.629 334.888 162.757 334.888L162.853 335.08L162.469 337.144C162.181 337.112 161.637 337.08 160.837 337.048C160.037 337.016 159.157 337 158.197 337C157.365 337 156.405 337.08 155.317 337.24C154.261 337.4 153.573 337.512 153.253 337.576L153.445 335.608ZM157.477 309.064C156.741 309.064 156.165 308.824 155.749 308.344C155.333 307.864 155.125 307.288 155.125 306.616C155.125 305.848 155.397 305.192 155.941 304.648C156.485 304.072 157.157 303.784 157.957 303.784C158.693 303.784 159.269 304.024 159.685 304.504C160.101 304.984 160.309 305.56 160.309 306.232C160.309 307 160.037 307.672 159.493 308.248C158.949 308.792 158.277 309.064 157.477 309.064ZM186.288 337.576C183.792 337.576 182.368 336.44 182.016 334.168L181.68 334.024C178.352 336.296 176.352 337.432 175.68 337.432C173.856 337.432 172.24 337.016 170.832 336.184C169.424 335.32 168.336 334.12 167.568 332.584C166.8 331.048 166.416 329.288 166.416 327.304C166.416 325.032 166.944 322.936 168 321.016C169.088 319.096 170.544 317.576 172.368 316.456C174.224 315.304 176.224 314.728 178.368 314.728C179.392 314.728 180.496 314.792 181.68 314.92V306.952C181.68 305.224 181.088 304.36 179.904 304.36C179.68 304.36 179.44 304.392 179.184 304.456C178.928 304.488 178.768 304.52 178.704 304.552L178.896 302.776C180.272 302.584 181.696 302.328 183.168 302.008C184.64 301.688 185.584 301.48 186 301.384L186.288 302.008C185.936 302.552 185.616 305.928 185.328 312.136C185.072 318.344 184.944 324.952 184.944 331.96C184.944 332.664 185.12 333.208 185.472 333.592C185.824 333.976 186.304 334.168 186.912 334.168C187.36 334.168 187.792 334.088 188.208 333.928C188.656 333.736 189.008 333.544 189.264 333.352C189.552 333.16 189.728 333.032 189.792 332.968L190.464 333.736C190.368 333.896 190.128 334.248 189.744 334.792C189.36 335.304 188.848 335.848 188.208 336.424C187.6 337 186.96 337.384 186.288 337.576ZM176.448 334.312C177.12 334.312 177.84 334.12 178.608 333.736C179.408 333.352 180.08 332.968 180.624 332.584C181.168 332.168 181.52 331.896 181.68 331.768V318.616C181.584 318.552 181.344 318.44 180.96 318.28C180.576 318.088 180.032 317.912 179.328 317.752C178.656 317.592 177.888 317.512 177.023 317.512C174.88 317.512 173.184 318.248 171.936 319.72C170.72 321.16 170.112 323.144 170.112 325.672C170.112 327.272 170.384 328.728 170.928 330.04C171.504 331.352 172.272 332.392 173.232 333.16C174.224 333.928 175.296 334.312 176.448 334.312ZM192.197 348.568C191.941 348.568 191.525 348.184 190.949 347.416C190.373 346.68 190.085 346.152 190.085 345.832L190.325 345.496C192.117 345.496 193.781 344.744 195.317 343.24C196.885 341.768 198.229 339.688 199.349 337C196.885 329.192 194.901 323.304 193.397 319.336C193.109 318.536 192.693 317.96 192.149 317.608C191.637 317.256 190.965 317.064 190.133 317.032L190.037 316.84L190.325 315.256L194.309 315.304C195.493 315.304 196.661 315.256 197.813 315.16C198.997 315.064 199.749 315 200.069 314.968L200.165 315.208L199.877 316.696C198.789 316.728 198.053 316.84 197.669 317.032C197.317 317.192 197.141 317.496 197.141 317.944C197.141 318.456 197.445 319.784 198.053 321.928C198.693 324.072 199.349 326.216 200.021 328.36C200.693 330.472 201.141 331.848 201.365 332.488H201.557C205.237 323.688 207.077 318.904 207.077 318.136C207.077 317.304 206.469 316.888 205.253 316.888H203.045L202.949 316.696L203.237 315.112C203.525 315.144 204.165 315.192 205.157 315.256C206.149 315.288 207.141 315.304 208.133 315.304L212.213 315.256L211.877 317.032C211.173 317.16 210.629 317.416 210.245 317.8C209.893 318.152 209.541 318.808 209.189 319.768L203.093 334.36C201.429 338.392 200.069 341.384 199.013 343.336C197.957 345.288 196.917 346.648 195.893 347.416C194.869 348.216 193.637 348.6 192.197 348.568ZM228.997 337.576C226.405 337.576 224.981 336.28 224.725 333.688L224.533 333.64C223.381 334.792 222.325 335.704 221.365 336.376C220.437 337.048 219.733 337.384 219.253 337.384C217.461 337.384 215.989 336.824 214.837 335.704C213.685 334.584 213.109 333.16 213.109 331.432C213.109 330.504 213.333 329.688 213.781 328.984C214.261 328.28 214.885 327.816 215.653 327.592L224.773 325.096L224.821 322.984C224.821 321.384 224.453 320.136 223.717 319.24C222.981 318.344 221.941 317.896 220.597 317.896C219.701 317.896 218.757 318.104 217.765 318.52C216.773 318.936 215.797 319.528 214.837 320.296L214.597 320.152L214.021 318.088C215.525 317.224 217.029 316.456 218.533 315.784C220.069 315.08 221.173 314.728 221.845 314.728C223.925 314.728 225.557 315.272 226.741 316.36C227.925 317.448 228.517 318.968 228.517 320.92C228.517 321.624 228.405 323.064 228.181 325.24C227.829 328.76 227.653 331 227.653 331.96C227.653 332.664 227.829 333.208 228.181 333.592C228.533 333.976 229.013 334.168 229.621 334.168C230.133 334.168 230.661 334.056 231.205 333.832C231.749 333.576 232.181 333.288 232.501 332.968L233.173 333.736C232.693 334.536 232.069 335.32 231.301 336.088C230.565 336.824 229.797 337.32 228.997 337.576ZM220.069 334.12C220.677 334.12 221.381 333.912 222.181 333.496C223.013 333.048 223.765 332.488 224.437 331.816L224.677 326.92L218.149 328.888C217.221 329.176 216.757 329.848 216.757 330.904C216.757 331.832 217.061 332.6 217.669 333.208C218.309 333.816 219.109 334.12 220.069 334.12Z" fill="black"/>
</svg>
