<?xml version="1.0" standalone="no"?>
<!DOCTYPE svg PUBLIC "-//W3C//DTD SVG 20010904//EN"
 "http://www.w3.org/TR/2001/REC-SVG-20010904/DTD/svg10.dtd">
<svg version="1.0" xmlns="http://www.w3.org/2000/svg"
 width="350.000000pt" height="226.000000pt" viewBox="0 0 350.000000 226.000000"
 preserveAspectRatio="xMidYMid meet">
<metadata>
Created by potrace 1.16, written by Peter Selinger 2001-2019
</metadata>
<g transform="translate(0.000000,226.000000) scale(0.100000,-0.100000)"
fill="#000000" stroke="none">
<path d="M1353 1878 c-198 -198 -303 -310 -303 -323 0 -28 597 -625 625 -625
27 0 625 598 625 625 0 27 -598 625 -625 625 -12 0 -133 -113 -322 -302z m520
-96 c25 -27 23 -56 -11 -183 -18 -64 -32 -121 -32 -127 0 -24 39 -11 64 20 19
24 28 30 36 22 9 -9 8 -19 -3 -41 -20 -38 -38 -52 -84 -68 -32 -11 -39 -19
-48 -53 -13 -52 -17 -55 -49 -41 -27 13 -33 43 -17 84 7 16 2 24 -28 42 l-36
23 -42 -42 c-36 -36 -49 -42 -95 -46 -43 -3 -58 0 -80 17 -57 45 -41 138 29
168 34 14 44 14 96 1 l57 -15 57 96 c86 146 98 161 137 161 19 0 40 -8 49 -18z"/>
<path d="M1165 765 c-75 -27 -117 -105 -96 -181 13 -47 65 -104 82 -87 7 7 1
19 -20 40 -60 61 -47 154 28 192 49 25 63 26 107 5 46 -22 77 -82 68 -130 -8
-43 -51 -91 -90 -99 -54 -12 -58 -15 -46 -27 8 -8 21 -8 51 1 144 43 161 221
27 282 -49 22 -59 22 -111 4z"/>
<path d="M262 663 c-28 -60 -58 -125 -67 -145 l-15 -38 35 0 c24 0 37 6 45 20
9 16 21 20 65 20 44 0 56 -4 65 -20 7 -13 21 -20 40 -20 17 0 30 3 30 7 0 20
-126 283 -136 283 -6 0 -34 -48 -62 -107z m152 -133 c6 -21 5 -22 -4 -7 -9 14
-26 17 -89 17 -71 0 -79 -2 -90 -22 -11 -23 -11 -23 -5 2 4 14 27 65 52 115
l44 90 43 -85 c23 -47 45 -96 49 -110z"/>
<path d="M510 661 c0 -103 2 -111 26 -140 29 -35 91 -56 135 -46 15 4 40 20
54 37 24 28 25 36 25 144 l0 115 -32 -3 -33 -3 4 -88 c4 -99 -11 -137 -54
-137 -45 0 -55 23 -55 131 l0 99 -35 0 -35 0 0 -109z"/>
<path d="M814 755 c-11 -27 4 -45 36 -45 l30 0 0 -115 0 -115 35 0 35 0 0 115
0 115 35 0 c32 0 35 2 35 30 l0 30 -100 0 c-80 0 -102 -3 -106 -15z"/>
<path d="M1530 766 c0 -5 37 -88 94 -208 20 -43 41 -78 47 -78 6 0 33 48 60
108 27 59 56 120 64 135 21 41 19 47 -18 47 -32 0 -35 -4 -70 -77 l-36 -77
-37 77 c-35 74 -38 77 -70 77 -19 0 -34 -2 -34 -4z"/>
<path d="M1897 628 l-66 -143 32 -3 c23 -3 35 2 46 17 19 30 115 31 131 1 7
-13 21 -20 40 -20 17 0 30 3 30 7 0 22 -125 283 -136 283 -6 0 -41 -64 -77
-142z m167 -98 c6 -21 5 -22 -4 -7 -9 14 -26 17 -89 17 -73 0 -79 -2 -84 -22
-4 -12 -9 -19 -13 -15 -4 4 17 55 45 114 l53 108 43 -85 c23 -47 45 -96 49
-110z"/>
<path d="M2160 625 l0 -145 35 0 35 0 0 145 0 145 -35 0 -35 0 0 -145z"/>
<path d="M2310 625 l0 -145 81 0 c95 0 131 16 160 72 34 67 19 141 -40 191
-30 25 -40 27 -117 27 l-84 0 0 -145z m193 86 c37 -36 46 -95 22 -145 -23 -47
-60 -66 -130 -66 l-55 0 0 118 c0 65 3 122 8 126 4 5 34 5 67 2 48 -5 66 -12
88 -35z"/>
<path d="M2358 621 l3 -108 57 3 c31 3 63 11 73 20 47 43 48 127 2 170 -21 19
-37 24 -82 24 l-56 0 3 -109z m117 64 c32 -31 33 -82 4 -119 -17 -22 -28 -27
-58 -24 l-36 3 -3 69 c-2 38 -1 75 2 83 9 22 64 15 91 -12z"/>
<path d="M2614 755 c3 -9 24 -42 46 -75 37 -55 40 -64 40 -129 l0 -71 29 0
c25 0 28 3 24 23 -4 18 -3 19 6 7 8 -11 11 1 11 48 0 57 4 69 40 122 58 85 59
90 17 90 -29 0 -38 -6 -61 -40 -14 -22 -28 -40 -31 -40 -3 0 -17 18 -31 40
-23 34 -32 40 -61 40 -27 0 -34 -3 -29 -15z"/>
<path d="M2953 635 c-35 -74 -63 -140 -63 -145 0 -19 59 -11 70 10 16 30 112
29 131 -1 11 -15 23 -20 46 -17 l31 3 -64 140 c-35 77 -69 141 -76 143 -8 1
-38 -52 -75 -133z m127 -17 c44 -100 61 -144 39 -100 -11 20 -19 22 -90 22
-69 0 -80 -2 -89 -21 -7 -11 -14 -19 -16 -16 -6 5 98 217 106 217 3 0 25 -46
50 -102z"/>
<path d="M1173 725 c-75 -32 -90 -121 -32 -180 82 -83 220 11 175 119 -14 35
-53 69 -68 60 -4 -3 -8 0 -8 5 0 15 -28 13 -67 -4z m76 -30 c36 -18 55 -62 42
-97 -12 -32 -48 -58 -79 -58 -27 0 -82 50 -82 75 0 27 30 76 53 85 31 12 34
12 66 -5z"/>
</g>
</svg>
