<?xml version="1.0" standalone="no"?>
<!DOCTYPE svg PUBLIC "-//W3C//DTD SVG 20010904//EN"
 "http://www.w3.org/TR/2001/REC-SVG-20010904/DTD/svg10.dtd">
<svg version="1.0" xmlns="http://www.w3.org/2000/svg"
 width="346.000000pt" height="256.000000pt" viewBox="0 0 346.000000 256.000000"
 preserveAspectRatio="xMidYMid meet">
<metadata>
Created by potrace 1.16, written by Peter Selinger 2001-2019
</metadata>
<g transform="translate(0.000000,256.000000) scale(0.100000,-0.100000)"
fill="#000000" stroke="none">
<path d="M1612 2360 c9 -35 1 -73 -77 -362 -48 -178 -98 -344 -111 -370 -13
-26 -24 -50 -24 -53 0 -3 48 -5 106 -5 l107 0 -6 48 c-3 27 0 71 7 98 l12 49
122 3 122 3 12 -28 c6 -15 12 -61 11 -100 l0 -73 113 0 c72 0 114 4 114 10 0
6 -9 28 -20 50 -19 37 -193 659 -193 690 0 8 3 30 7 48 l8 32 -160 0 -160 0
10 -40z m184 -268 c19 -79 34 -152 34 -163 0 -17 -8 -19 -74 -19 -41 0 -78 5
-81 10 -6 9 56 298 72 340 5 12 7 10 10 -5 2 -11 20 -84 39 -163z"/>
<path d="M1420 1185 c0 -3 9 -24 21 -46 11 -23 71 -206 133 -407 l113 -367 76
-3 c65 -2 76 0 81 15 67 232 225 730 242 766 l24 47 -113 0 -114 0 5 -53 c3
-42 -8 -94 -57 -271 -60 -215 -71 -249 -71 -210 0 10 -25 109 -57 219 -42 152
-56 214 -54 258 l2 57 -116 0 c-63 0 -115 -2 -115 -5z"/>
</g>
</svg>
