<svg width="208" height="154" viewBox="0 0 208 154" fill="none" xmlns="http://www.w3.org/2000/svg">
<rect x="20" y="62" width="188" height="69" rx="10" fill="#78B5A6"/>
<rect x="20.5" y="62.5" width="187" height="68" rx="9.5" stroke="black" stroke-opacity="0.1"/>
<path d="M117.995 102.064V121H115.547V117.256C114.779 118.528 113.759 119.5 112.487 120.172C111.239 120.844 109.823 121.18 108.239 121.18C106.463 121.18 104.855 120.772 103.415 119.956C101.975 119.14 100.847 118 100.031 116.536C99.2149 115.072 98.8069 113.404 98.8069 111.532C98.8069 109.66 99.2149 107.992 100.031 106.528C100.847 105.064 101.975 103.936 103.415 103.144C104.855 102.328 106.463 101.92 108.239 101.92C109.775 101.92 111.155 102.244 112.379 102.892C113.627 103.516 114.647 104.44 115.439 105.664V102.064H117.995ZM108.455 118.912C109.775 118.912 110.963 118.612 112.019 118.012C113.099 117.388 113.939 116.512 114.539 115.384C115.163 114.256 115.475 112.972 115.475 111.532C115.475 110.092 115.163 108.808 114.539 107.68C113.939 106.552 113.099 105.688 112.019 105.088C110.963 104.464 109.775 104.152 108.455 104.152C107.111 104.152 105.899 104.464 104.819 105.088C103.763 105.688 102.923 106.552 102.299 107.68C101.699 108.808 101.399 110.092 101.399 111.532C101.399 112.972 101.699 114.256 102.299 115.384C102.923 116.512 103.763 117.388 104.819 118.012C105.899 118.612 107.111 118.912 108.455 118.912ZM125.113 102.064H127.669V121H125.113V102.064ZM126.409 97.924C125.881 97.924 125.437 97.744 125.077 97.384C124.717 97.024 124.537 96.592 124.537 96.088C124.537 95.608 124.717 95.188 125.077 94.828C125.437 94.468 125.881 94.288 126.409 94.288C126.937 94.288 127.381 94.468 127.741 94.828C128.101 95.164 128.281 95.572 128.281 96.052C128.281 96.58 128.101 97.024 127.741 97.384C127.381 97.744 126.937 97.924 126.409 97.924ZM152.061 94.288V121H149.613V117.256C148.845 118.528 147.825 119.5 146.553 120.172C145.305 120.844 143.889 121.18 142.305 121.18C140.529 121.18 138.921 120.772 137.481 119.956C136.041 119.14 134.913 118 134.097 116.536C133.281 115.072 132.873 113.404 132.873 111.532C132.873 109.66 133.281 107.992 134.097 106.528C134.913 105.064 136.041 103.936 137.481 103.144C138.921 102.328 140.529 101.92 142.305 101.92C143.841 101.92 145.221 102.244 146.445 102.892C147.693 103.516 148.713 104.44 149.505 105.664V94.288H152.061ZM142.521 118.912C143.841 118.912 145.029 118.612 146.085 118.012C147.165 117.388 148.005 116.512 148.605 115.384C149.229 114.256 149.541 112.972 149.541 111.532C149.541 110.092 149.229 108.808 148.605 107.68C148.005 106.552 147.165 105.688 146.085 105.088C145.029 104.464 143.841 104.152 142.521 104.152C141.177 104.152 139.965 104.464 138.885 105.088C137.829 105.688 136.989 106.552 136.365 107.68C135.765 108.808 135.465 110.092 135.465 111.532C135.465 112.972 135.765 114.256 136.365 115.384C136.989 116.512 137.829 117.388 138.885 118.012C139.965 118.612 141.177 118.912 142.521 118.912ZM176.244 102.064V118.696C176.244 121.912 175.512 124.288 174.048 125.824C172.584 127.384 170.376 128.164 167.424 128.164C165.768 128.164 164.196 127.9 162.708 127.372C161.244 126.868 160.056 126.16 159.144 125.248L160.44 123.304C161.256 124.12 162.264 124.756 163.464 125.212C164.664 125.668 165.948 125.896 167.316 125.896C169.5 125.896 171.108 125.332 172.14 124.204C173.172 123.1 173.688 121.372 173.688 119.02V116.824C173.016 117.928 172.092 118.78 170.916 119.38C169.764 119.98 168.456 120.28 166.992 120.28C164.52 120.28 162.564 119.596 161.124 118.228C159.708 116.836 159 114.808 159 112.144V102.064H161.556V111.892C161.556 113.884 162.048 115.396 163.032 116.428C164.016 117.46 165.42 117.976 167.244 117.976C169.236 117.976 170.808 117.376 171.96 116.176C173.112 114.952 173.688 113.26 173.688 111.1V102.064H176.244ZM200.682 102.064V121H198.234V117.256C197.466 118.528 196.446 119.5 195.174 120.172C193.926 120.844 192.51 121.18 190.926 121.18C189.15 121.18 187.542 120.772 186.102 119.956C184.662 119.14 183.534 118 182.718 116.536C181.902 115.072 181.494 113.404 181.494 111.532C181.494 109.66 181.902 107.992 182.718 106.528C183.534 105.064 184.662 103.936 186.102 103.144C187.542 102.328 189.15 101.92 190.926 101.92C192.462 101.92 193.842 102.244 195.066 102.892C196.314 103.516 197.334 104.44 198.126 105.664V102.064H200.682ZM191.142 118.912C192.462 118.912 193.65 118.612 194.706 118.012C195.786 117.388 196.626 116.512 197.226 115.384C197.85 114.256 198.162 112.972 198.162 111.532C198.162 110.092 197.85 108.808 197.226 107.68C196.626 106.552 195.786 105.688 194.706 105.088C193.65 104.464 192.462 104.152 191.142 104.152C189.798 104.152 188.586 104.464 187.506 105.088C186.45 105.688 185.61 106.552 184.986 107.68C184.386 108.808 184.086 110.092 184.086 111.532C184.086 112.972 184.386 114.256 184.986 115.384C185.61 116.512 186.45 117.388 187.506 118.012C188.586 118.612 189.798 118.912 191.142 118.912Z" fill="#0E0E0F"/>
<path d="M123 76.664H92.5256L79.4146 131M6 76.664H27.6314L31.1697 62M56.5401 62L72.2381 127.057L73.1895 131" stroke="#0E0E0F" stroke-width="5" stroke-linecap="round" stroke-linejoin="round"/>
<path d="M31.4073 58.1841L43.3692 3L55.3311 58.1841" stroke="#F1F1F1" stroke-width="5" stroke-linecap="round" stroke-linejoin="round"/>
<path d="M78.5586 134.436L75.8266 147.04L74.2612 139.818L73 134" stroke="#F1F1F1" stroke-width="5" stroke-linecap="round" stroke-linejoin="round"/>
<path d="M83.2039 39.064V58H80.7559V54.544C80.0839 55.696 79.1599 56.596 77.9839 57.244C76.8079 57.868 75.4639 58.18 73.9519 58.18C71.4799 58.18 69.5239 57.496 68.0839 56.128C66.6679 54.736 65.9599 52.708 65.9599 50.044V39.064H68.5159V49.792C68.5159 51.784 69.0079 53.296 69.9919 54.328C70.9759 55.36 72.3799 55.876 74.2039 55.876C76.1959 55.876 77.7679 55.276 78.9199 54.076C80.0719 52.852 80.6479 51.16 80.6479 49V39.064H83.2039ZM99.6865 56.848C99.2065 57.28 98.6185 57.616 97.9225 57.856C97.2265 58.072 96.4945 58.18 95.7265 58.18C93.9505 58.18 92.5825 57.7 91.6225 56.74C90.6625 55.78 90.1825 54.424 90.1825 52.672V34.924H92.7385V39.064H98.4625V41.224H92.7385V52.528C92.7385 53.656 93.0145 54.52 93.5665 55.12C94.1185 55.696 94.9225 55.984 95.9785 55.984C97.1305 55.984 98.0665 55.66 98.7865 55.012L99.6865 56.848ZM111.392 58.18C109.568 58.18 107.924 57.772 106.46 56.956C104.996 56.116 103.844 54.964 103.004 53.5C102.164 52.036 101.744 50.38 101.744 48.532C101.744 46.684 102.164 45.028 103.004 43.564C103.844 42.1 104.996 40.96 106.46 40.144C107.924 39.328 109.568 38.92 111.392 38.92C113.216 38.92 114.86 39.328 116.324 40.144C117.788 40.96 118.928 42.1 119.744 43.564C120.584 45.028 121.004 46.684 121.004 48.532C121.004 50.38 120.584 52.036 119.744 53.5C118.928 54.964 117.788 56.116 116.324 56.956C114.86 57.772 113.216 58.18 111.392 58.18ZM111.392 55.912C112.736 55.912 113.936 55.612 114.992 55.012C116.072 54.388 116.912 53.512 117.512 52.384C118.112 51.256 118.412 49.972 118.412 48.532C118.412 47.092 118.112 45.808 117.512 44.68C116.912 43.552 116.072 42.688 114.992 42.088C113.936 41.464 112.736 41.152 111.392 41.152C110.048 41.152 108.836 41.464 107.756 42.088C106.7 42.688 105.86 43.552 105.236 44.68C104.636 45.808 104.336 47.092 104.336 48.532C104.336 49.972 104.636 51.256 105.236 52.384C105.86 53.512 106.7 54.388 107.756 55.012C108.836 55.612 110.048 55.912 111.392 55.912Z" fill="white"/>
</svg>
