<svg width="203" height="123" viewBox="0 0 203 123" fill="none" xmlns="http://www.w3.org/2000/svg">
<rect x="3" y="45.9293" width="200" height="62.1453" rx="15" fill="#89CBBB"/>
<path d="M83.8618 33.064V52H81.4138V48.544C80.7418 49.696 79.8178 50.596 78.6418 51.244C77.4658 51.868 76.1218 52.18 74.6098 52.18C72.1378 52.18 70.1818 51.496 68.7418 50.128C67.3258 48.736 66.6178 46.708 66.6178 44.044V33.064H69.1738V43.792C69.1738 45.784 69.6658 47.296 70.6498 48.328C71.6338 49.36 73.0378 49.876 74.8618 49.876C76.8538 49.876 78.4258 49.276 79.5778 48.076C80.7298 46.852 81.3058 45.16 81.3058 43V33.064H83.8618ZM100.344 50.848C99.8644 51.28 99.2764 51.616 98.5804 51.856C97.8844 52.072 97.1524 52.18 96.3844 52.18C94.6084 52.18 93.2404 51.7 92.2804 50.74C91.3204 49.78 90.8404 48.424 90.8404 46.672V28.924H93.3964V33.064H99.1204V35.224H93.3964V46.528C93.3964 47.656 93.6724 48.52 94.2244 49.12C94.7764 49.696 95.5804 49.984 96.6364 49.984C97.7884 49.984 98.7244 49.66 99.4444 49.012L100.344 50.848ZM112.049 52.18C110.225 52.18 108.581 51.772 107.117 50.956C105.653 50.116 104.501 48.964 103.661 47.5C102.821 46.036 102.401 44.38 102.401 42.532C102.401 40.684 102.821 39.028 103.661 37.564C104.501 36.1 105.653 34.96 107.117 34.144C108.581 33.328 110.225 32.92 112.049 32.92C113.873 32.92 115.517 33.328 116.981 34.144C118.445 34.96 119.585 36.1 120.401 37.564C121.241 39.028 121.661 40.684 121.661 42.532C121.661 44.38 121.241 46.036 120.401 47.5C119.585 48.964 118.445 50.116 116.981 50.956C115.517 51.772 113.873 52.18 112.049 52.18ZM112.049 49.912C113.393 49.912 114.593 49.612 115.649 49.012C116.729 48.388 117.569 47.512 118.169 46.384C118.769 45.256 119.069 43.972 119.069 42.532C119.069 41.092 118.769 39.808 118.169 38.68C117.569 37.552 116.729 36.688 115.649 36.088C114.593 35.464 113.393 35.152 112.049 35.152C110.705 35.152 109.493 35.464 108.413 36.088C107.357 36.688 106.517 37.552 105.893 38.68C105.293 39.808 104.993 41.092 104.993 42.532C104.993 43.972 105.293 45.256 105.893 46.384C106.517 47.512 107.357 48.388 108.413 49.012C109.493 49.612 110.705 49.912 112.049 49.912Z" fill="#0E0E0F"/>
<path d="M110.898 89.064V108H108.45V104.256C107.682 105.528 106.662 106.5 105.39 107.172C104.142 107.844 102.726 108.18 101.142 108.18C99.3664 108.18 97.7584 107.772 96.3184 106.956C94.8784 106.14 93.7504 105 92.9344 103.536C92.1184 102.072 91.7104 100.404 91.7104 98.532C91.7104 96.66 92.1184 94.992 92.9344 93.528C93.7504 92.064 94.8784 90.936 96.3184 90.144C97.7584 89.328 99.3664 88.92 101.142 88.92C102.678 88.92 104.058 89.244 105.282 89.892C106.53 90.516 107.55 91.44 108.342 92.664V89.064H110.898ZM101.358 105.912C102.678 105.912 103.866 105.612 104.922 105.012C106.002 104.388 106.842 103.512 107.442 102.384C108.066 101.256 108.378 99.972 108.378 98.532C108.378 97.092 108.066 95.808 107.442 94.68C106.842 93.552 106.002 92.688 104.922 92.088C103.866 91.464 102.678 91.152 101.358 91.152C100.014 91.152 98.8024 91.464 97.7224 92.088C96.6664 92.688 95.8264 93.552 95.2024 94.68C94.6024 95.808 94.3024 97.092 94.3024 98.532C94.3024 99.972 94.6024 101.256 95.2024 102.384C95.8264 103.512 96.6664 104.388 97.7224 105.012C98.8024 105.612 100.014 105.912 101.358 105.912ZM118.017 89.064H120.573V108H118.017V89.064ZM119.313 84.924C118.785 84.924 118.341 84.744 117.981 84.384C117.621 84.024 117.441 83.592 117.441 83.088C117.441 82.608 117.621 82.188 117.981 81.828C118.341 81.468 118.785 81.288 119.313 81.288C119.841 81.288 120.285 81.468 120.645 81.828C121.005 82.164 121.185 82.572 121.185 83.052C121.185 83.58 121.005 84.024 120.645 84.384C120.285 84.744 119.841 84.924 119.313 84.924ZM144.965 81.288V108H142.517V104.256C141.749 105.528 140.729 106.5 139.457 107.172C138.209 107.844 136.793 108.18 135.209 108.18C133.433 108.18 131.825 107.772 130.385 106.956C128.945 106.14 127.817 105 127.001 103.536C126.185 102.072 125.777 100.404 125.777 98.532C125.777 96.66 126.185 94.992 127.001 93.528C127.817 92.064 128.945 90.936 130.385 90.144C131.825 89.328 133.433 88.92 135.209 88.92C136.745 88.92 138.125 89.244 139.349 89.892C140.597 90.516 141.617 91.44 142.409 92.664V81.288H144.965ZM135.425 105.912C136.745 105.912 137.933 105.612 138.989 105.012C140.069 104.388 140.909 103.512 141.509 102.384C142.133 101.256 142.445 99.972 142.445 98.532C142.445 97.092 142.133 95.808 141.509 94.68C140.909 93.552 140.069 92.688 138.989 92.088C137.933 91.464 136.745 91.152 135.425 91.152C134.081 91.152 132.869 91.464 131.789 92.088C130.733 92.688 129.893 93.552 129.269 94.68C128.669 95.808 128.369 97.092 128.369 98.532C128.369 99.972 128.669 101.256 129.269 102.384C129.893 103.512 130.733 104.388 131.789 105.012C132.869 105.612 134.081 105.912 135.425 105.912ZM169.147 89.064V105.696C169.147 108.912 168.415 111.288 166.951 112.824C165.487 114.384 163.279 115.164 160.327 115.164C158.671 115.164 157.099 114.9 155.611 114.372C154.147 113.868 152.959 113.16 152.047 112.248L153.343 110.304C154.159 111.12 155.167 111.756 156.367 112.212C157.567 112.668 158.851 112.896 160.219 112.896C162.403 112.896 164.011 112.332 165.043 111.204C166.075 110.1 166.591 108.372 166.591 106.02V103.824C165.919 104.928 164.995 105.78 163.819 106.38C162.667 106.98 161.359 107.28 159.895 107.28C157.423 107.28 155.467 106.596 154.027 105.228C152.611 103.836 151.903 101.808 151.903 99.144V89.064H154.459V98.892C154.459 100.884 154.951 102.396 155.935 103.428C156.919 104.46 158.323 104.976 160.147 104.976C162.139 104.976 163.711 104.376 164.863 103.176C166.015 101.952 166.591 100.26 166.591 98.1V89.064H169.147ZM193.586 89.064V108H191.138V104.256C190.37 105.528 189.35 106.5 188.078 107.172C186.83 107.844 185.414 108.18 183.83 108.18C182.054 108.18 180.446 107.772 179.006 106.956C177.566 106.14 176.438 105 175.622 103.536C174.806 102.072 174.398 100.404 174.398 98.532C174.398 96.66 174.806 94.992 175.622 93.528C176.438 92.064 177.566 90.936 179.006 90.144C180.446 89.328 182.054 88.92 183.83 88.92C185.366 88.92 186.746 89.244 187.97 89.892C189.218 90.516 190.238 91.44 191.03 92.664V89.064H193.586ZM184.046 105.912C185.366 105.912 186.554 105.612 187.61 105.012C188.69 104.388 189.53 103.512 190.13 102.384C190.754 101.256 191.066 99.972 191.066 98.532C191.066 97.092 190.754 95.808 190.13 94.68C189.53 93.552 188.69 92.688 187.61 92.088C186.554 91.464 185.366 91.152 184.046 91.152C182.702 91.152 181.49 91.464 180.41 92.088C179.354 92.688 178.514 93.552 177.89 94.68C177.29 95.808 176.99 97.092 176.99 98.532C176.99 99.972 177.29 101.256 177.89 102.384C178.514 103.512 179.354 104.388 180.41 105.012C181.49 105.612 182.702 105.912 184.046 105.912Z" fill="#0E0E0F"/>
<path d="M123.702 61.4656H92.2632L75.5263 119.931L42.0526 3L25.3158 61.4656H3" stroke="#0E0E0F" stroke-width="5" stroke-linecap="round" stroke-linejoin="round"/>
</svg>
